  0
SECTION
  2
HEADER
  9
$ACADVER
  1
AC1015
  9
$ACADMAINTVER
 70
     6
  9
$DWGCODEPAGE
  3
ANSI_1252
  9
$INSBASE
 10
0.0
 20
0.0
 30
0.0
  9
$EXTMIN
 10
0.0
 20
0.0
 30
0.0
  9
$EXTMAX
 10
279.4
 20
215.9
 30
0.0
  9
$LIMMIN
 10
0.0
 20
0.0
  9
$LIMMAX
 10
279.4
 20
215.9
  9
$ORTHOMODE
 70
     0
  9
$REGENMODE
 70
     1
  9
$FILLMODE
 70
     1
  9
$QTEXTMODE
 70
     0
  9
$MIRRTEXT
 70
     1
  9
$LTSCALE
 40
1.0
  9
$ATTMODE
 70
     1
  9
$TEXTSIZE
 40
3.5
  9
$TRACEWID
 40
1.0
  9
$TEXTSTYLE
  7
Standard
  9
$CLAYER
  8
0
  9
$CELTYPE
  6
ByLayer
  9
$CECOLOR
 62
   256
  9
$CELTSCALE
 40
1.0
  9
$DISPSILH
 70
     0
  9
$DIMSCALE
 40
1.0
  9
$DIMASZ
 40
3.302
  9
$DIMEXO
 40
1.0
  9
$DIMDLI
 40
3.75
  9
$DIMRND
 40
0.0
  9
$DIMDLE
 40
0.0
  9
$DIMEXE
 40
1.0
  9
$DIMTP
 40
0.0
  9
$DIMTM
 40
0.0
  9
$DIMTXT
 40
3.5
  9
$DIMCEN
 40
2.5
  9
$DIMTSZ
 40
0.0
  9
$DIMTOL
 70
     0
  9
$DIMLIM
 70
     0
  9
$DIMTIH
 70
     1
  9
$DIMTOH
 70
     1
  9
$DIMSE1
 70
     0
  9
$DIMSE2
 70
     0
  9
$DIMTAD
 70
     1
  9
$DIMZIN
 70
     1
  9
$DIMBLK
  1

  9
$DIMASO
 70
     1
  9
$DIMSHO
 70
     1
  9
$DIMPOST
  1

  9
$DIMAPOST
  1

  9
$DIMALT
 70
     0
  9
$DIMALTD
 70
     3
  9
$DIMALTF
 40
0.0393700787
  9
$DIMLFAC
 40
3.0
  9
$DIMTOFL
 70
     1
  9
$DIMTVP
 40
0.0
  9
$DIMTIX
 70
     0
  9
$DIMSOXD
 70
     0
  9
$DIMSAH
 70
     0
  9
$DIMBLK1
  1

  9
$DIMBLK2
  1

  9
$DIMSTYLE
  2
ISO-25
  9
$DIMCLRD
 70
     0
  9
$DIMCLRE
 70
     0
  9
$DIMCLRT
 70
     0
  9
$DIMTFAC
 40
1.0
  9
$DIMGAP
 40
1.524
  9
$DIMJUST
 70
     0
  9
$DIMSD1
 70
     0
  9
$DIMSD2
 70
     0
  9
$DIMTOLJ
 70
     0
  9
$DIMTZIN
 70
     1
  9
$DIMALTZ
 70
     0
  9
$DIMALTTZ
 70
     0
  9
$DIMUPT
 70
     0
  9
$DIMDEC
 70
     2
  9
$DIMTDEC
 70
     2
  9
$DIMALTU
 70
     2
  9
$DIMALTTD
 70
     3
  9
$DIMTXSTY
  7
Standard
  9
$DIMAUNIT
 70
     0
  9
$DIMADEC
 70
     2
  9
$DIMALTRND
 40
0.0
  9
$DIMAZIN
 70
     0
  9
$DIMDSEP
 70
    44
  9
$DIMATFIT
 70
     3
  9
$DIMFRAC
 70
     0
  9
$DIMLDRBLK
  1

  9
$DIMLUNIT
 70
     2
  9
$DIMLWD
 70
    -2
  9
$DIMLWE
 70
    -2
  9
$DIMTMOVE
 70
     0
  9
$LUNITS
 70
     2
  9
$LUPREC
 70
     2
  9
$SKETCHINC
 40
1.0
  9
$FILLETRAD
 40
10.0
  9
$AUNITS
 70
     0
  9
$AUPREC
 70
     2
  9
$MENU
  1
.
  9
$ELEVATION
 40
0.0
  9
$PELEVATION
 40
0.0
  9
$THICKNESS
 40
0.0
  9
$LIMCHECK
 70
     0
  9
$CHAMFERA
 40
0.0
  9
$CHAMFERB
 40
0.0
  9
$CHAMFERC
 40
0.0
  9
$CHAMFERD
 40
0.0
  9
$SKPOLY
 70
     0
  9
$TDCREATE
 40
2459048.915690127
  9
$TDUCREATE
 40
2459049.124023461
  9
$TDUPDATE
 40
2459048.915692303
  9
$TDUUPDATE
 40
2459049.124025636
  9
$TDINDWG
 40
0.0000000116
  9
$TDUSRTIMER
 40
0.0000000116
  9
$USRTIMER
 70
     1
  9
$ANGBASE
 50
0.0
  9
$ANGDIR
 70
     0
  9
$PDMODE
 70
     0
  9
$PDSIZE
 40
-1.0
  9
$PLINEWID
 40
0.0
  9
$SPLFRAME
 70
     0
  9
$SPLINETYPE
 70
     6
  9
$SPLINESEGS
 70
     8
  9
$HANDSEED
  5
1D5
  9
$SURFTAB1
 70
     6
  9
$SURFTAB2
 70
     6
  9
$SURFTYPE
 70
     6
  9
$SURFU
 70
     6
  9
$SURFV
 70
     6
  9
$UCSBASE
  2

  9
$UCSNAME
  2

  9
$UCSORG
 10
0.0
 20
0.0
 30
0.0
  9
$UCSXDIR
 10
1.0
 20
0.0
 30
0.0
  9
$UCSYDIR
 10
0.0
 20
1.0
 30
0.0
  9
$UCSORTHOREF
  2

  9
$UCSORTHOVIEW
 70
     0
  9
$UCSORGTOP
 10
0.0
 20
0.0
 30
0.0
  9
$UCSORGBOTTOM
 10
0.0
 20
0.0
 30
0.0
  9
$UCSORGLEFT
 10
0.0
 20
0.0
 30
0.0
  9
$UCSORGRIGHT
 10
0.0
 20
0.0
 30
0.0
  9
$UCSORGFRONT
 10
0.0
 20
0.0
 30
0.0
  9
$UCSORGBACK
 10
0.0
 20
0.0
 30
0.0
  9
$PUCSBASE
  2

  9
$PUCSNAME
  2

  9
$PUCSORG
 10
0.0
 20
0.0
 30
0.0
  9
$PUCSXDIR
 10
1.0
 20
0.0
 30
0.0
  9
$PUCSYDIR
 10
0.0
 20
1.0
 30
0.0
  9
$PUCSORTHOREF
  2

  9
$PUCSORTHOVIEW
 70
     0
  9
$PUCSORGTOP
 10
0.0
 20
0.0
 30
0.0
  9
$PUCSORGBOTTOM
 10
0.0
 20
0.0
 30
0.0
  9
$PUCSORGLEFT
 10
0.0
 20
0.0
 30
0.0
  9
$PUCSORGRIGHT
 10
0.0
 20
0.0
 30
0.0
  9
$PUCSORGFRONT
 10
0.0
 20
0.0
 30
0.0
  9
$PUCSORGBACK
 10
0.0
 20
0.0
 30
0.0
  9
$USERI1
 70
     0
  9
$USERI2
 70
     0
  9
$USERI3
 70
     0
  9
$USERI4
 70
     0
  9
$USERI5
 70
     0
  9
$USERR1
 40
0.0
  9
$USERR2
 40
0.0
  9
$USERR3
 40
0.0
  9
$USERR4
 40
0.0
  9
$USERR5
 40
0.0
  9
$WORLDVIEW
 70
     1
  9
$SHADEDGE
 70
     3
  9
$SHADEDIF
 70
    70
  9
$TILEMODE
 70
     1
  9
$MAXACTVP
 70
    64
  9
$PINSBASE
 10
0.0
 20
0.0
 30
0.0
  9
$PLIMCHECK
 70
     0
  9
$PEXTMIN
 10
1.0000000000E+20
 20
1.0000000000E+20
 30
1.0000000000E+20
  9
$PEXTMAX
 10
-1.0000000000E+20
 20
-1.0000000000E+20
 30
-1.0000000000E+20
  9
$PLIMMIN
 10
0.0
 20
0.0
  9
$PLIMMAX
 10
420.0
 20
297.0
  9
$UNITMODE
 70
     0
  9
$VISRETAIN
 70
     1
  9
$PLINEGEN
 70
     0
  9
$PSLTSCALE
 70
     1
  9
$TREEDEPTH
 70
  3020
  9
$CMLSTYLE
  2
Standard
  9
$CMLJUST
 70
     0
  9
$CMLSCALE
 40
20.0
  9
$PROXYGRAPHICS
 70
     1
  9
$MEASUREMENT
 70
     1
  9
$CELWEIGHT
370
    -1
  9
$ENDCAPS
280
     0
  9
$JOINSTYLE
280
     0
  9
$LWDISPLAY
290
     1
  9
$INSUNITS
 70
     4
  9
$HYPERLINKBASE
  1

  9
$STYLESHEET
  1

  9
$XEDIT
290
     1
  9
$CEPSNTYPE
380
     0
  9
$PSTYLEMODE
290
     1
  9
$FINGERPRINTGUID
  2
{E226D485-E44B-4AD6-AFBE-5255EF2DF603}
  9
$VERSIONGUID
  2
{FAEB1C32-E019-11D5-929B-00C0DF256EC4}
  9
$EXTNAMES
290
     1
  9
$PSVPSCALE
 40
0.0
  9
$OLESTARTUP
290
     0
  0
ENDSEC
  0
SECTION
  2
CLASSES
  0
CLASS
  1
ACDBDICTIONARYWDFLT
  2
AcDbDictionaryWithDefault
  3
ObjectDBX Classes
 90
        0
280
     0
281
     0
  0
CLASS
  1
VISUALSTYLE
  2
AcDbVisualStyle
  3
ObjectDBX Classes
 90
     4095
280
     0
281
     0
  0
CLASS
  1
MATERIAL
  2
AcDbMaterial
  3
ObjectDBX Classes
 90
     1153
280
     0
281
     0
  0
CLASS
  1
SCALE
  2
AcDbScale
  3
ObjectDBX Classes
 90
     1153
280
     0
281
     0
  0
CLASS
  1
TABLESTYLE
  2
AcDbTableStyle
  3
ObjectDBX Classes
 90
     4095
280
     0
281
     0
  0
CLASS
  1
MLEADERSTYLE
  2
AcDbMLeaderStyle
  3
ACDB_MLEADERSTYLE_CLASS
 90
     4095
280
     0
281
     0
  0
CLASS
  1
SUN
  2
AcDbSun
  3
SCENEOE
 90
     1153
280
     0
281
     0
  0
CLASS
  1
ACDBPLACEHOLDER
  2
AcDbPlaceHolder
  3
ObjectDBX Classes
 90
        0
280
     0
281
     0
  0
CLASS
  1
LAYOUT
  2
AcDbLayout
  3
ObjectDBX Classes
 90
        0
280
     0
281
     0
  0
ENDSEC
  0
SECTION
  2
TABLES
  0
TABLE
  2
VPORT
  5
8
330
0
100
AcDbSymbolTable
 70
     1
  0
VPORT
  5
29
330
8
100
AcDbSymbolTableRecord
100
AcDbViewportTableRecord
  2
*Active
 70
     0
 10
0.0
 20
0.0
 11
1.0
 21
1.0
 12
139.7
 22
107.95
 13
0.0
 23
0.0
 14
10.0
 24
10.0
 15
10.0
 25
10.0
 16
0.0
 26
0.0
 36
1.0
 17
0.0
 27
0.0
 37
0.0
 40
215.9
 41
1.2941176471
 42
50.0
 43
0.0
 44
0.0
 50
0.0
 51
0.0
 71
     0
 72
  2000
 73
     1
 74
     3
 75
     0
 76
     0
 77
     0
 78
     0
281
     0
 65
     1
110
0.0
120
0.0
130
0.0
111
1.0
121
0.0
131
0.0
112
0.0
122
1.0
132
0.0
 79
     0
146
0.0
  0
ENDTAB
  0
TABLE
  2
LTYPE
  5
5
330
0
100
AcDbSymbolTable
 70
     6
  0
LTYPE
  5
14
330
5
100
AcDbSymbolTableRecord
100
AcDbLinetypeTableRecord
  2
ByBlock
 70
     0
  3

 72
    65
 73
     0
 40
0.0
  0
LTYPE
  5
15
330
5
100
AcDbSymbolTableRecord
100
AcDbLinetypeTableRecord
  2
ByLayer
 70
     0
  3

 72
    65
 73
     0
 40
0.0
  0
LTYPE
  5
16
330
5
100
AcDbSymbolTableRecord
100
AcDbLinetypeTableRecord
  2
Continuous
 70
     0
  3
Solid line
 72
    65
 73
     0
 40
0.0
  0
LTYPE
  5
6E
330
5
100
AcDbSymbolTableRecord
100
AcDbLinetypeTableRecord
  2
HIDDEN
 70
     0
  3
Hidden __ __ __ __ __ __ __ __ __ __ __ __ __ __
 72
    65
 73
     2
 40
1.905
 49
1.27
 74
     0
 49
-0.635
 74
     0
  0
LTYPE
  5
6F
330
5
100
AcDbSymbolTableRecord
100
AcDbLinetypeTableRecord
  2
PHANTOM
 70
     0
  3
Phantom ______  __  __  ______  __  __  ______
 72
    65
 73
     6
 40
12.7
 49
6.35
 74
     0
 49
-1.27
 74
     0
 49
1.27
 74
     0
 49
-1.27
 74
     0
 49
1.27
 74
     0
 49
-1.27
 74
     0
  0
LTYPE
  5
70
330
5
100
AcDbSymbolTableRecord
100
AcDbLinetypeTableRecord
  2
CENTER
 70
     0
  3
Center ____ _ ____ _ ____ _ ____ _ ____ _ ____
 72
    65
 73
     4
 40
10.16
 49
6.35
 74
     0
 49
-1.27
 74
     0
 49
1.27
 74
     0
 49
-1.27
 74
     0
  0
LTYPE
  5
71
330
5
100
AcDbSymbolTableRecord
100
AcDbLinetypeTableRecord
  2
CENTERX2
 70
     0
  3
Center (2x) ________  __  ________  __  _____
 72
    65
 73
     4
 40
20.32
 49
12.7
 74
     0
 49
-2.54
 74
     0
 49
2.54
 74
     0
 49
-2.54
 74
     0
  0
LTYPE
  5
72
330
5
100
AcDbSymbolTableRecord
100
AcDbLinetypeTableRecord
  2
DOT2
 70
     0
  3
Dot (.5x) ........................................
 72
    65
 73
     2
 40
0.635
 49
0.0
 74
     0
 49
-0.635
 74
     0
  0
ENDTAB
  0
TABLE
  2
LAYER
  5
2
330
0
100
AcDbSymbolTable
 70
     5
  0
LAYER
  5
10
330
2
100
AcDbSymbolTableRecord
100
AcDbLayerTableRecord
  2
0
 70
     0
 62
     7
  6
Continuous
370
    -3
390
F
  0
LAYER
  5
73
330
2
100
AcDbSymbolTableRecord
100
AcDbLayerTableRecord
  2
FORMAT
 70
     0
 62
     8
  6
Continuous
370
    -3
390
F
  0
LAYER
  5
74
330
2
100
AcDbSymbolTableRecord
100
AcDbLayerTableRecord
  2
TITLE_BLOCK_TEXT
 70
     0
 62
     8
  6
Continuous
370
    -3
390
F
  0
LAYER
  5
75
330
2
100
AcDbSymbolTableRecord
100
AcDbLayerTableRecord
  2
PAGE_BORDER
 70
     0
 62
     7
  6
Continuous
370
    -3
390
F
  0
LAYER
  5
76
330
2
100
AcDbSymbolTableRecord
100
AcDbLayerTableRecord
  2
TITLE_BLOCK_BORDER
 70
     0
 62
     7
  6
Continuous
370
    -3
390
F
  0
ENDTAB
  0
TABLE
  2
STYLE
  5
3
330
0
100
AcDbSymbolTable
 70
     3
  0
STYLE
  5
11
330
3
100
AcDbSymbolTableRecord
100
AcDbTextStyleTableRecord
  2
Standard
 70
     0
 40
0.0
 41
1.0
 50
0.0
 71
     0
 42
3.5
  3
txt
  4

  0
STYLE
  5
CE
330
3
100
AcDbSymbolTableRecord
100
AcDbTextStyleTableRecord
  2
SLDTEXTSTYLE0
 70
     0
 40
0.0
 41
0.75
 50
0.0
 71
     0
 42
3.5
  3
TXT
  4

  0
STYLE
  5
E9
330
3
100
AcDbSymbolTableRecord
100
AcDbTextStyleTableRecord
  2
SLDTEXTSTYLE1
 70
     0
 40
0.0
 41
0.7
 50
0.0
 71
     0
 42
3.5
  3
TXT
  4

  0
ENDTAB
  0
TABLE
  2
VIEW
  5
6
330
0
100
AcDbSymbolTable
 70
     0
  0
ENDTAB
  0
TABLE
  2
UCS
  5
7
330
0
100
AcDbSymbolTable
 70
     0
  0
ENDTAB
  0
TABLE
  2
APPID
  5
9
330
0
100
AcDbSymbolTable
 70
     1
  0
APPID
  5
12
330
9
100
AcDbSymbolTableRecord
100
AcDbRegAppTableRecord
  2
ACAD
 70
     0
  0
ENDTAB
  0
TABLE
  2
DIMSTYLE
  5
A
330
0
100
AcDbSymbolTable
 70
     2
100
AcDbDimStyleTable
  0
DIMSTYLE
105
27
330
A
100
AcDbSymbolTableRecord
100
AcDbDimStyleTableRecord
  2
ISO-25
 70
     0
 41
2.5
 42
0.625
 43
3.75
 44
1.25
 73
     0
 74
     0
 77
     1
 78
     8
140
2.5
141
2.5
143
0.0393700787
147
0.625
171
     3
172
     1
178
     0
271
     2
272
     2
274
     3
278
    44
283
     0
284
     8
340
11
  0
DIMSTYLE
105
12F
102
{ACAD_REACTORS
330
12E
330
139
102
}
330
A
100
AcDbSymbolTableRecord
100
AcDbDimStyleTableRecord
  2
SLDDIMSTYLE0
 70
     0
 41
3.302
 44
0.0
 45
0.000000001
 73
     0
 74
     0
 77
     1
 78
     4
 79
     1
140
3.5
144
3.0
147
0.875
173
     1
178
     0
271
     2
272
     2
276
     2
284
    12
340
CE
  0
ENDTAB
  0
TABLE
  2
BLOCK_RECORD
  5
1
330
0
100
AcDbSymbolTable
 70
     8
  0
BLOCK_RECORD
  5
1F
330
1
100
AcDbSymbolTableRecord
100
AcDbBlockTableRecord
  2
*Model_Space
340
22
  0
BLOCK_RECORD
  5
1B
330
1
100
AcDbSymbolTableRecord
100
AcDbBlockTableRecord
  2
*Paper_Space
340
1E
  0
BLOCK_RECORD
  5
23
330
1
100
AcDbSymbolTableRecord
100
AcDbBlockTableRecord
  2
*Paper_Space0
340
26
  0
BLOCK_RECORD
  5
77
330
1
100
AcDbSymbolTableRecord
100
AcDbBlockTableRecord
  2
Lien3D Logo
340
0
102
{BLKREFS
331
CD
102
}
  0
BLOCK_RECORD
  5
D7
330
1
100
AcDbSymbolTableRecord
100
AcDbBlockTableRecord
  2
SW_NOTE_177
340
0
102
{BLKREFS
331
DD
102
}
  0
BLOCK_RECORD
  5
130
330
1
100
AcDbSymbolTableRecord
100
AcDbBlockTableRecord
  2
_D
340
0
  0
BLOCK_RECORD
  5
13A
330
1
100
AcDbSymbolTableRecord
100
AcDbBlockTableRecord
  2
_D_1
340
0
  0
BLOCK_RECORD
  5
143
330
1
100
AcDbSymbolTableRecord
100
AcDbBlockTableRecord
  2
SW_NOTE_178
340
0
102
{BLKREFS
331
150
102
}
  0
BLOCK_RECORD
  5
151
330
1
100
AcDbSymbolTableRecord
100
AcDbBlockTableRecord
  2
SW_NOTE_179
340
0
102
{BLKREFS
331
15C
102
}
  0
BLOCK_RECORD
  5
17D
330
1
100
AcDbSymbolTableRecord
100
AcDbBlockTableRecord
  2
SW_CENTERMARKSYMBOL_109
340
0
102
{BLKREFS
331
188
102
}
  0
ENDTAB
  0
ENDSEC
  0
SECTION
  2
BLOCKS
  0
BLOCK
  5
20
330
1F
100
AcDbEntity
  8
0
100
AcDbBlockBegin
  2
*Model_Space
 70
     0
 10
0.0
 20
0.0
 30
0.0
  3
*Model_Space
  1

  0
ENDBLK
  5
21
330
1F
100
AcDbEntity
  8
0
100
AcDbBlockEnd
  0
BLOCK
  5
1C
330
1B
100
AcDbEntity
 67
     1
  8
0
100
AcDbBlockBegin
  2
*Paper_Space
 70
     0
 10
0.0
 20
0.0
 30
0.0
  3
*Paper_Space
  1

  0
ENDBLK
  5
1D
330
1B
100
AcDbEntity
 67
     1
  8
0
100
AcDbBlockEnd
  0
BLOCK
  5
24
330
23
100
AcDbEntity
  8
0
100
AcDbBlockBegin
  2
*Paper_Space0
 70
     0
 10
0.0
 20
0.0
 30
0.0
  3
*Paper_Space0
  1

  0
ENDBLK
  5
25
330
23
100
AcDbEntity
  8
0
100
AcDbBlockEnd
  0
BLOCK
  5
78
330
77
100
AcDbEntity
  8
0
100
AcDbBlockBegin
  2
Lien3D Logo
 70
     0
 10
0.0
 20
0.0
 30
0.0
  3
Lien3D Logo
  1

  0
LINE
  5
7A
330
77
100
AcDbEntity
  8
0
  6
Continuous
 62
     7
370
    18
100
AcDbLine
 10
12.7343265569
 20
5.3110134638
 30
0.0
 11
21.2132034356
 21
10.2057648981
 31
0.0
  0
LINE
  5
7B
330
77
100
AcDbEntity
  8
0
  6
Continuous
 62
     7
370
    18
100
AcDbLine
 10
11.6704641374
 20
5.9251681659
 30
0.0
 11
12.7343265569
 21
5.3110134638
 31
0.0
  0
LINE
  5
7C
330
77
100
AcDbEntity
  8
0
  6
Continuous
 62
     7
370
    18
100
AcDbLine
 10
14.7485350487
 20
8.8934377183
 30
0.0
 11
11.6704641374
 21
5.9251681659
 31
0.0
  0
LINE
  5
7D
330
77
100
AcDbEntity
  8
0
  6
Continuous
 62
     7
370
    18
100
AcDbLine
 10
10.6386241956
 20
6.5208366851
 30
0.0
 11
14.7485350487
 21
8.8934377183
 31
0.0
  0
LINE
  5
7E
330
77
100
AcDbEntity
  8
0
  6
Continuous
 62
     7
370
    18
100
AcDbLine
 10
9.5747617761
 20
7.1349913873
 30
0.0
 11
10.6386241956
 21
6.5208366851
 31
0.0
  0
LINE
  5
7F
330
77
100
AcDbEntity
  8
0
  6
Continuous
 62
     7
370
    18
100
AcDbLine
 10
18.0536386548
 20
12.0297428216
 30
0.0
 11
9.5747617761
 21
7.1349913873
 31
0.0
  0
LINE
  5
80
330
77
100
AcDbEntity
  8
0
  6
Continuous
 62
     7
370
    18
100
AcDbLine
 10
19.1175010743
 20
11.4155881195
 30
0.0
 11
18.0536386548
 21
12.0297428216
 31
0.0
  0
LINE
  5
81
330
77
100
AcDbEntity
  8
0
  6
Continuous
 62
     7
370
    18
100
AcDbLine
 10
16.039430163
 20
8.447318567
 30
0.0
 11
19.1175010743
 21
11.4155881195
 31
0.0
  0
LINE
  5
82
330
77
100
AcDbEntity
  8
0
  6
Continuous
 62
     7
370
    18
100
AcDbLine
 10
20.149341016
 20
10.8199196003
 30
0.0
 11
16.039430163
 21
8.447318567
 31
0.0
  0
LINE
  5
83
330
77
100
AcDbEntity
  8
0
  6
Continuous
 62
     7
370
    18
100
AcDbLine
 10
21.2132034356
 20
10.2057648981
 30
0.0
 11
20.149341016
 21
10.8199196003
 31
0.0
  0
LINE
  5
84
330
77
100
AcDbEntity
  8
0
  6
Continuous
 62
     7
370
    18
100
AcDbLine
 10
12.7343265569
 20
5.3110134638
 30
0.0
 11
12.7343265569
 21
1.2283094043
 31
0.0
  0
LINE
  5
85
330
77
100
AcDbEntity
  8
0
  6
Continuous
 62
     7
370
    18
100
AcDbLine
 10
21.2132034356
 20
10.2057648981
 30
0.0
 11
21.2132034356
 21
6.1230608387
 31
0.0
  0
LINE
  5
86
330
77
100
AcDbEntity
  8
0
  6
Continuous
 62
     7
370
    18
100
AcDbLine
 10
12.7343265569
 20
1.2283094043
 30
0.0
 11
21.2132034356
 21
6.1230608387
 31
0.0
  0
LINE
  5
87
330
77
100
AcDbEntity
  8
0
  6
Continuous
 62
     7
370
    18
100
AcDbLine
 10
11.6704641374
 20
5.9251681659
 30
0.0
 11
11.6704641374
 21
4.6968587616
 31
0.0
  0
LINE
  5
88
330
77
100
AcDbEntity
  8
0
  6
Continuous
 62
     7
370
    18
100
AcDbLine
 10
11.6704641374
 20
1.8424641065
 30
0.0
 11
12.7343265569
 21
1.2283094043
 31
0.0
  0
LINE
  5
89
330
77
100
AcDbEntity
  8
0
  6
Continuous
 62
     7
370
    18
100
AcDbLine
 10
10.6386241956
 20
6.5208366851
 30
0.0
 11
10.6386241956
 21
5.2925272808
 31
0.0
  0
LINE
  5
8A
330
77
100
AcDbEntity
  8
0
  6
Continuous
 62
     7
370
    18
100
AcDbLine
 10
9.5747617761
 20
7.1349913873
 30
0.0
 11
9.5747617761
 21
5.9066819829
 31
0.0
  0
LINE
  5
8B
330
77
100
AcDbEntity
  8
0
  6
Continuous
 62
     7
370
    18
100
AcDbLine
 10
19.1175010743
 20
11.4155881195
 30
0.0
 11
19.1175010743
 21
10.2242510811
 31
0.0
  0
LINE
  5
8C
330
77
100
AcDbEntity
  8
0
  6
Continuous
 62
     7
370
    18
100
AcDbLine
 10
10.6066017178
 20
4.0827040594
 30
0.0
 11
10.6066017178
 21
0.0
 31
0.0
  0
LINE
  5
8D
330
77
100
AcDbEntity
  8
0
  6
Continuous
 62
     7
370
    18
100
AcDbLine
 10
10.6066017178
 20
4.0827040594
 30
0.0
 11
11.6704641374
 21
4.6968587616
 31
0.0
  0
LINE
  5
8E
330
77
100
AcDbEntity
  8
0
  6
Continuous
 62
     7
370
    18
100
AcDbLine
 10
11.6704641374
 20
4.6968587616
 30
0.0
 11
11.6704641374
 21
0.6141547022
 31
0.0
  0
LINE
  5
8F
330
77
100
AcDbEntity
  8
0
  6
Continuous
 62
     7
370
    18
100
AcDbLine
 10
10.6066017178
 20
0.0
 30
0.0
 11
11.6704641374
 21
0.6141547022
 31
0.0
  0
LINE
  5
90
330
77
100
AcDbEntity
  8
0
  6
Continuous
 62
     7
370
    18
100
AcDbLine
 10
0.0
 20
10.2057648981
 30
0.0
 11
0.0
 21
6.1230608387
 31
0.0
  0
LINE
  5
91
330
77
100
AcDbEntity
  8
0
  6
Continuous
 62
     7
370
    18
100
AcDbLine
 10
0.0
 20
10.2057648981
 30
0.0
 11
10.6066017178
 21
4.0827040594
 31
0.0
  0
LINE
  5
92
330
77
100
AcDbEntity
  8
0
  6
Continuous
 62
     7
370
    18
100
AcDbLine
 10
0.0
 20
6.1230608387
 30
0.0
 11
10.6066017178
 21
0.0
 31
0.0
  0
LINE
  5
93
330
77
100
AcDbEntity
  8
0
  6
Continuous
 62
     7
370
    18
100
AcDbLine
 10
11.6704641374
 20
15.7146710346
 30
0.0
 11
10.6066017178
 21
16.3288257368
 31
0.0
  0
LINE
  5
94
330
77
100
AcDbEntity
  8
0
  6
Continuous
 62
     7
370
    18
100
AcDbLine
 10
2.1277248391
 20
10.2057648981
 30
0.0
 11
11.6704641374
 21
15.7146710346
 31
0.0
  0
LINE
  5
95
330
77
100
AcDbEntity
  8
0
  6
Continuous
 62
     7
370
    18
100
AcDbLine
 10
11.6704641374
 20
4.6968587616
 30
0.0
 11
2.1277248391
 21
10.2057648981
 31
0.0
  0
LINE
  5
96
330
77
100
AcDbEntity
  8
0
  6
Continuous
 62
     7
370
    18
100
AcDbLine
 10
10.6066017178
 20
16.3288257368
 30
0.0
 11
0.0
 21
10.2057648981
 31
0.0
  0
LINE
  5
97
330
77
100
AcDbEntity
  8
0
  6
Continuous
 62
     7
370
    18
100
AcDbLine
 10
11.6704641374
 20
15.7146710346
 30
0.0
 11
11.6704641374
 21
14.4863616303
 31
0.0
  0
LINE
  5
98
330
77
100
AcDbEntity
  8
0
  6
Continuous
 62
     7
370
    18
100
AcDbLine
 10
4.2554496783
 20
10.2057648981
 30
0.0
 11
4.2554496783
 21
8.9774554938
 31
0.0
  0
LINE
  5
99
330
77
100
AcDbEntity
  8
0
  6
Continuous
 62
     7
370
    18
100
AcDbLine
 10
4.2554496783
 20
10.2057648981
 30
0.0
 11
5.3193120978
 21
9.5916101959
 31
0.0
  0
LINE
  5
9A
330
77
100
AcDbEntity
  8
0
  6
Continuous
 62
     7
370
    18
100
AcDbLine
 10
5.3193120978
 20
9.5916101959
 30
0.0
 11
5.3193120978
 21
8.3633007916
 31
0.0
  0
LINE
  5
9B
330
77
100
AcDbEntity
  8
0
  6
Continuous
 62
     7
370
    18
100
AcDbLine
 10
5.3193120978
 20
9.5916101959
 30
0.0
 11
13.7981889765
 21
14.4863616303
 31
0.0
  0
LINE
  5
9C
330
77
100
AcDbEntity
  8
0
  6
Continuous
 62
     7
370
    18
100
AcDbLine
 10
13.7981889765
 20
14.4863616303
 30
0.0
 11
13.7981889765
 21
13.2580522259
 31
0.0
  0
LINE
  5
9D
330
77
100
AcDbEntity
  8
0
  6
Continuous
 62
     7
370
    18
100
AcDbLine
 10
12.7343265569
 20
15.1005163324
 30
0.0
 11
4.2554496783
 21
10.2057648981
 31
0.0
  0
LINE
  5
9E
330
77
100
AcDbEntity
  8
0
  6
Continuous
 62
     7
370
    18
100
AcDbLine
 10
13.7981889765
 20
14.4863616303
 30
0.0
 11
12.7343265569
 21
15.1005163324
 31
0.0
  0
LINE
  5
9F
330
77
100
AcDbEntity
  8
0
  6
Continuous
 62
     7
370
    18
100
AcDbLine
 10
15.9259138156
 20
12.0297428216
 30
0.0
 11
16.9897762352
 21
12.6438975238
 31
0.0
  0
LINE
  5
A0
330
77
100
AcDbEntity
  8
0
  6
Continuous
 62
     7
370
    18
100
AcDbLine
 10
14.8620513961
 20
12.6438975238
 30
0.0
 11
15.9259138156
 21
12.0297428216
 31
0.0
  0
LINE
  5
A1
330
77
100
AcDbEntity
  8
0
  6
Continuous
 62
     7
370
    18
100
AcDbLine
 10
12.2184065861
 20
11.1177538599
 30
0.0
 11
14.8620513961
 21
12.6438975238
 31
0.0
  0
LINE
  5
A2
330
77
100
AcDbEntity
  8
0
  6
Continuous
 62
     7
370
    18
100
AcDbLine
 10
13.2822690056
 20
10.5035991577
 30
0.0
 11
12.2184065861
 21
11.1177538599
 31
0.0
  0
LINE
  5
A3
330
77
100
AcDbEntity
  8
0
  6
Continuous
 62
     7
370
    18
100
AcDbLine
 10
12.2184065861
 20
9.8894444555
 30
0.0
 11
13.2822690056
 21
10.5035991577
 31
0.0
  0
LINE
  5
A4
330
77
100
AcDbEntity
  8
0
  6
Continuous
 62
     7
370
    18
100
AcDbLine
 10
11.1545441665
 20
10.5035991577
 30
0.0
 11
12.2184065861
 21
9.8894444555
 31
0.0
  0
LINE
  5
A5
330
77
100
AcDbEntity
  8
0
  6
Continuous
 62
     7
370
    18
100
AcDbLine
 10
8.5108993565
 20
8.9774554938
 30
0.0
 11
11.1545441665
 21
10.5035991577
 31
0.0
  0
LINE
  5
A6
330
77
100
AcDbEntity
  8
0
  6
Continuous
 62
     7
370
    18
100
AcDbLine
 10
9.5747617761
 20
8.3633007916
 30
0.0
 11
8.5108993565
 21
8.9774554938
 31
0.0
  0
LINE
  5
A7
330
77
100
AcDbEntity
  8
0
  6
Continuous
 62
     7
370
    18
100
AcDbLine
 10
8.5108993565
 20
7.7491460894
 30
0.0
 11
9.5747617761
 21
8.3633007916
 31
0.0
  0
LINE
  5
A8
330
77
100
AcDbEntity
  8
0
  6
Continuous
 62
     7
370
    18
100
AcDbLine
 10
6.3831745174
 20
8.9774554938
 30
0.0
 11
8.5108993565
 21
7.7491460894
 31
0.0
  0
LINE
  5
A9
330
77
100
AcDbEntity
  8
0
  6
Continuous
 62
     7
370
    18
100
AcDbLine
 10
14.8620513961
 20
13.8722069281
 30
0.0
 11
6.3831745174
 21
8.9774554938
 31
0.0
  0
LINE
  5
AA
330
77
100
AcDbEntity
  8
0
  6
Continuous
 62
     7
370
    18
100
AcDbLine
 10
16.9897762352
 20
12.6438975238
 30
0.0
 11
14.8620513961
 21
13.8722069281
 31
0.0
  0
LINE
  5
AB
330
77
100
AcDbEntity
  8
0
  6
Continuous
 62
     7
370
    18
100
AcDbLine
 10
6.3831745174
 20
8.9774554938
 30
0.0
 11
6.3831745174
 21
7.7491460894
 31
0.0
  0
LINE
  5
AC
330
77
100
AcDbEntity
  8
0
  6
Continuous
 62
     7
370
    18
100
AcDbLine
 10
8.5108993565
 20
7.7491460894
 30
0.0
 11
8.5108993565
 21
6.5208366851
 31
0.0
  0
LINE
  5
AD
330
77
100
AcDbEntity
  8
0
  6
Continuous
 62
     7
370
    18
100
AcDbLine
 10
9.5747617761
 20
8.3633007916
 30
0.0
 11
9.5747617761
 21
7.1349913873
 31
0.0
  0
LINE
  5
AE
330
77
100
AcDbEntity
  8
0
  6
Continuous
 62
     7
370
    18
100
AcDbLine
 10
11.1545441665
 20
10.5035991577
 30
0.0
 11
11.1545441665
 21
8.046980349
 31
0.0
  0
LINE
  5
AF
330
77
100
AcDbEntity
  8
0
  6
Continuous
 62
     7
370
    18
100
AcDbLine
 10
12.2184065861
 20
9.8894444555
 30
0.0
 11
12.2184065861
 21
8.6611350512
 31
0.0
  0
LINE
  5
B0
330
77
100
AcDbEntity
  8
0
  6
Continuous
 62
     7
370
    18
100
AcDbLine
 10
13.2822690056
 20
10.5035991577
 30
0.0
 11
13.2822690056
 21
9.2752897534
 31
0.0
  0
LINE
  5
B1
330
77
100
AcDbEntity
  8
0
  6
Continuous
 62
     7
370
    18
100
AcDbLine
 10
14.8620513961
 20
12.6438975238
 30
0.0
 11
14.8620513961
 21
10.1872787151
 31
0.0
  0
LINE
  5
B2
330
77
100
AcDbEntity
  8
0
  6
Continuous
 62
     7
370
    18
100
AcDbLine
 10
15.9259138156
 20
12.0297428216
 30
0.0
 11
15.9259138156
 21
10.8014334173
 31
0.0
  0
LINE
  5
B3
330
77
100
AcDbEntity
  8
0
  6
Continuous
 62
     7
370
    18
100
AcDbLine
 10
16.9897762352
 20
12.6438975238
 30
0.0
 11
16.9897762352
 21
11.4155881195
 31
0.0
  0
ENDBLK
  5
79
330
77
100
AcDbEntity
  8
0
100
AcDbBlockEnd
  0
BLOCK
  5
D8
330
D7
100
AcDbEntity
  8
0
100
AcDbBlockBegin
  2
SW_NOTE_177
 70
     0
 10
0.0
 20
0.0
 30
0.0
  3
SW_NOTE_177
  1

  0
MTEXT
  5
DA
330
D7
100
AcDbEntity
  8
TITLE_BLOCK_BORDER
 62
     0
100
AcDbMText
 10
0.0
 20
4.5117370892
 30
0.0
 40
3.5
 41
0.0
 71
     1
 72
     1
  1
500W @ 120V silicon heater with center hole,
  7
SLDTEXTSTYLE0
 73
     1
 44
1.0
  0
MTEXT
  5
DB
330
D7
100
AcDbEntity
  8
TITLE_BLOCK_BORDER
 62
     0
100
AcDbMText
 10
0.0
 20
-0.0139574413
 30
0.0
 40
3.5
 41
0.0
 71
     1
 72
     1
  1
loose thermistor able to reach hole, 320x320mm,
  7
SLDTEXTSTYLE0
 73
     1
 44
1.0
  0
MTEXT
  5
DC
330
D7
100
AcDbEntity
  8
TITLE_BLOCK_BORDER
 62
     0
100
AcDbMText
 10
0.0
 20
-4.5396519717
 30
0.0
 40
3.5
 41
0.0
 71
     1
 72
     1
  1
From Alirubber on Aliexpress, or Keenovo
  7
SLDTEXTSTYLE0
 73
     1
 44
1.0
  0
ENDBLK
  5
D9
330
D7
100
AcDbEntity
  8
0
100
AcDbBlockEnd
  0
BLOCK
  5
131
330
130
100
AcDbEntity
  8
0
100
AcDbBlockBegin
  2
_D
 70
     0
 10
0.0
 20
0.0
 30
0.0
  3
_D
  1

  0
SOLID
  5
133
330
130
100
AcDbEntity
  8
TITLE_BLOCK_BORDER
100
AcDbTrace
 10
25.5913803856
 20
195.8865885993
 30
0.0
 11
28.8933803856
 21
195.3785885993
 31
0.0
 12
28.8933803856
 22
196.3945885993
 32
0.0
 13
28.8933803856
 23
196.3945885993
 33
0.0
  0
SOLID
  5
134
330
130
100
AcDbEntity
  8
TITLE_BLOCK_BORDER
100
AcDbTrace
 10
132.2580470523
 20
195.8865885993
 30
0.0
 11
128.9560470523
 21
196.3945885993
 31
0.0
 12
128.9560470523
 22
195.3785885993
 32
0.0
 13
128.9560470523
 23
195.3785885993
 33
0.0
  0
LINE
  5
135
330
130
100
AcDbEntity
  8
TITLE_BLOCK_BORDER
100
AcDbLine
 10
25.5913803856
 20
191.0509451178
 30
0.0
 11
25.5913803856
 21
196.8865885993
 31
0.0
  0
LINE
  5
136
330
130
100
AcDbEntity
  8
TITLE_BLOCK_BORDER
100
AcDbLine
 10
132.2580470523
 20
191.0509451178
 30
0.0
 11
132.2580470523
 21
196.8865885993
 31
0.0
  0
LINE
  5
137
330
130
100
AcDbEntity
  8
TITLE_BLOCK_BORDER
100
AcDbLine
 10
25.5913803856
 20
195.8865885993
 30
0.0
 11
132.2580470523
 21
195.8865885993
 31
0.0
  0
MTEXT
  5
138
330
130
100
AcDbEntity
  8
TITLE_BLOCK_BORDER
100
AcDbMText
 10
69.4373648507
 20
200.3983255139
 30
0.0
 40
3.5
 41
0.0
 71
     1
 72
     1
  1
320.00
  7
SLDTEXTSTYLE0
 73
     1
 44
1.0
  0
ENDBLK
  5
132
330
130
100
AcDbEntity
  8
0
100
AcDbBlockEnd
  0
BLOCK
  5
13B
330
13A
100
AcDbEntity
  8
0
100
AcDbBlockBegin
  2
_D_1
 70
     0
 10
0.0
 20
0.0
 30
0.0
  3
_D_1
  1

  0
SOLID
  5
13D
330
13A
100
AcDbEntity
  8
TITLE_BLOCK_BORDER
100
AcDbTrace
 10
19.4569747458
 20
83.3842784511
 30
0.0
 11
19.9649747458
 21
86.6862784511
 31
0.0
 12
18.9489747458
 22
86.6862784511
 32
0.0
 13
18.9489747458
 23
86.6862784511
 33
0.0
  0
SOLID
  5
13E
330
13A
100
AcDbEntity
  8
TITLE_BLOCK_BORDER
100
AcDbTrace
 10
19.4569747458
 20
190.0509451178
 30
0.0
 11
18.9489747458
 21
186.7489451178
 31
0.0
 12
19.9649747458
 22
186.7489451178
 32
0.0
 13
19.9649747458
 23
186.7489451178
 33
0.0
  0
LINE
  5
13F
330
13A
100
AcDbEntity
  8
TITLE_BLOCK_BORDER
100
AcDbLine
 10
24.5913803856
 20
83.3842784511
 30
0.0
 11
18.4569747458
 21
83.3842784511
 31
0.0
  0
LINE
  5
140
330
13A
100
AcDbEntity
  8
TITLE_BLOCK_BORDER
100
AcDbLine
 10
24.5913803856
 20
190.0509451178
 30
0.0
 11
18.4569747458
 21
190.0509451178
 31
0.0
  0
LINE
  5
141
330
13A
100
AcDbEntity
  8
TITLE_BLOCK_BORDER
100
AcDbLine
 10
19.4569747458
 20
83.3842784511
 30
0.0
 11
19.4569747458
 21
190.0509451178
 31
0.0
  0
MTEXT
  5
142
330
13A
100
AcDbEntity
  8
TITLE_BLOCK_BORDER
100
AcDbMText
 10
14.9452378313
 20
132.9694401652
 30
0.0
 40
3.5
 41
0.0
 71
     1
 72
     1
  1
320.00
  7
SLDTEXTSTYLE0
 11
6.123233995736766E-17
 21
1.0
 31
0.0
 73
     1
 44
1.0
  0
ENDBLK
  5
13C
330
13A
100
AcDbEntity
  8
0
100
AcDbBlockEnd
  0
BLOCK
  5
144
330
143
100
AcDbEntity
  8
0
100
AcDbBlockBegin
  2
SW_NOTE_178
 70
     0
 10
0.0
 20
0.0
 30
0.0
  3
SW_NOTE_178
  1

  0
LINE
  5
146
330
143
100
AcDbEntity
  8
TITLE_BLOCK_BORDER
 62
     0
100
AcDbLine
 10
-0.0562174194
 20
-13.0663139603
 30
0.0
 11
96.6816903422
 21
-13.0663139603
 31
0.0
  0
LINE
  5
147
330
143
100
AcDbEntity
  8
TITLE_BLOCK_BORDER
 62
     0
100
AcDbLine
 10
96.6816903422
 20
-13.0663139603
 30
0.0
 11
-0.0562174194
 21
-13.0663139603
 31
0.0
  0
LINE
  5
148
330
143
100
AcDbEntity
  8
TITLE_BLOCK_BORDER
 62
     0
100
AcDbLine
 10
-0.0562174194
 20
-13.0663139603
 30
0.0
 11
96.6816903422
 21
-13.0663139603
 31
0.0
  0
LINE
  5
149
330
143
100
AcDbEntity
  8
TITLE_BLOCK_BORDER
 62
     0
100
AcDbLine
 10
96.6816903422
 20
-13.0663139603
 30
0.0
 11
-0.0562174194
 21
-13.0663139603
 31
0.0
  0
LINE
  5
14A
330
143
100
AcDbEntity
  8
TITLE_BLOCK_BORDER
 62
     0
100
AcDbLine
 10
-0.0562174194
 20
-13.0663139603
 30
0.0
 11
96.6816903422
 21
-13.0663139603
 31
0.0
  0
LINE
  5
14B
330
143
100
AcDbEntity
  8
TITLE_BLOCK_BORDER
 62
     0
100
AcDbLine
 10
96.6816903422
 20
-13.0663139603
 30
0.0
 11
-0.0562174194
 21
-13.0663139603
 31
0.0
  0
MTEXT
  5
14C
330
143
100
AcDbEntity
  8
TITLE_BLOCK_BORDER
 62
     0
100
AcDbMText
 10
0.0
 20
4.5117370892
 30
0.0
 40
3.5
 41
0.0
 71
     1
 72
     1
  1
1M Long Lead with Thermistor Wiring Inside
  7
SLDTEXTSTYLE0
 73
     1
 44
1.0
  0
MTEXT
  5
14D
330
143
100
AcDbEntity
  8
TITLE_BLOCK_BORDER
 62
     0
100
AcDbMText
 10
0.0
 20
-0.0139574413
 30
0.0
 40
3.5
 41
0.0
 71
     1
 72
     1
  1
(Thermistor to exit at back of pad to be
  7
SLDTEXTSTYLE1
 73
     1
 44
1.0
  0
MTEXT
  5
14E
330
143
100
AcDbEntity
  8
TITLE_BLOCK_BORDER
 62
     0
100
AcDbMText
 10
0.0
 20
-4.5396519717
 30
0.0
 40
3.5
 41
0.0
 71
     1
 72
     1
  1
field mounted to heat spreader). I.E. not
  7
SLDTEXTSTYLE0
 73
     1
 44
1.0
  0
MTEXT
  5
14F
330
143
100
AcDbEntity
  8
TITLE_BLOCK_BORDER
 62
     0
100
AcDbMText
 10
0.0
 20
-9.0653465022
 30
0.0
 40
3.5
 41
0.0
 71
     1
 72
     1
  1
encapsilated into heater pad
  7
SLDTEXTSTYLE0
 73
     1
 44
1.0
  0
ENDBLK
  5
145
330
143
100
AcDbEntity
  8
0
100
AcDbBlockEnd
  0
BLOCK
  5
152
330
151
100
AcDbEntity
  8
0
100
AcDbBlockBegin
  2
SW_NOTE_179
 70
     0
 10
0.0
 20
0.0
 30
0.0
  3
SW_NOTE_179
  1

  0
LINE
  5
154
330
151
100
AcDbEntity
  8
TITLE_BLOCK_BORDER
 62
     0
100
AcDbLine
 10
-0.0305293377
 20
-4.4702501903
 30
0.0
 11
87.4835314048
 21
-4.4702501903
 31
0.0
  0
LINE
  5
155
330
151
100
AcDbEntity
  8
TITLE_BLOCK_BORDER
 62
     0
100
AcDbLine
 10
87.4835314048
 20
-4.4702501903
 30
0.0
 11
-0.0305293377
 21
-4.4702501903
 31
0.0
  0
LINE
  5
156
330
151
100
AcDbEntity
  8
TITLE_BLOCK_BORDER
 62
     0
100
AcDbLine
 10
-0.0305293377
 20
-4.4702501903
 30
0.0
 11
87.4835314048
 21
-4.4702501903
 31
0.0
  0
LINE
  5
157
330
151
100
AcDbEntity
  8
TITLE_BLOCK_BORDER
 62
     0
100
AcDbLine
 10
87.4835314048
 20
-4.4702501903
 30
0.0
 11
-0.0305293377
 21
-4.4702501903
 31
0.0
  0
LINE
  5
158
330
151
100
AcDbEntity
  8
TITLE_BLOCK_BORDER
 62
     0
100
AcDbLine
 10
-0.0305293377
 20
-4.4702501903
 30
0.0
 11
87.4835314048
 21
-4.4702501903
 31
0.0
  0
LINE
  5
159
330
151
100
AcDbEntity
  8
TITLE_BLOCK_BORDER
 62
     0
100
AcDbLine
 10
87.4835314048
 20
-4.4702501903
 30
0.0
 11
-0.0305293377
 21
-4.4702501903
 31
0.0
  0
MTEXT
  5
15A
330
151
100
AcDbEntity
  8
TITLE_BLOCK_BORDER
 62
     0
100
AcDbMText
 10
0.0
 20
4.5117370892
 30
0.0
 40
3.5
 41
0.0
 71
     1
 72
     1
  1
10mmx 10mm Center Cutout To Mount
  7
SLDTEXTSTYLE0
 73
     1
 44
1.0
  0
MTEXT
  5
15B
330
151
100
AcDbEntity
  8
TITLE_BLOCK_BORDER
 62
     0
100
AcDbMText
 10
0.0
 20
-0.0139574413
 30
0.0
 40
3.5
 41
0.0
 71
     1
 72
     1
  1
Thermistor To Heatspreader Directly
  7
SLDTEXTSTYLE0
 73
     1
 44
1.0
  0
ENDBLK
  5
153
330
151
100
AcDbEntity
  8
0
100
AcDbBlockEnd
  0
BLOCK
  5
17E
330
17D
100
AcDbEntity
  8
0
100
AcDbBlockBegin
  2
SW_CENTERMARKSYMBOL_109
 70
     0
 10
0.0
 20
0.0
 30
0.0
  3
SW_CENTERMARKSYMBOL_109
  1

  0
LINE
  5
180
330
17D
100
AcDbEntity
  8
TITLE_BLOCK_BORDER
 62
     0
100
AcDbLine
 10
0.0
 20
0.0
 30
0.0
 11
0.0
 21
0.8333333333
 31
0.0
  0
LINE
  5
181
330
17D
100
AcDbEntity
  8
TITLE_BLOCK_BORDER
 62
     0
100
AcDbLine
 10
0.0
 20
0.0
 30
0.0
 11
-0.8333333333
 21
0.0
 31
0.0
  0
LINE
  5
182
330
17D
100
AcDbEntity
  8
TITLE_BLOCK_BORDER
 62
     0
100
AcDbLine
 10
0.0
 20
0.0
 30
0.0
 11
0.0
 21
-0.8333333333
 31
0.0
  0
LINE
  5
183
330
17D
100
AcDbEntity
  8
TITLE_BLOCK_BORDER
 62
     0
100
AcDbLine
 10
0.0
 20
0.0
 30
0.0
 11
0.8333333333
 21
0.0
 31
0.0
  0
LINE
  5
184
330
17D
100
AcDbEntity
  8
TITLE_BLOCK_BORDER
 62
     0
100
AcDbLine
 10
0.0
 20
1.6666666667
 30
0.0
 11
0.0
 21
2.1666666667
 31
0.0
  0
LINE
  5
185
330
17D
100
AcDbEntity
  8
TITLE_BLOCK_BORDER
 62
     0
100
AcDbLine
 10
-1.6666666667
 20
0.0
 30
0.0
 11
-2.1666666667
 21
0.0
 31
0.0
  0
LINE
  5
186
330
17D
100
AcDbEntity
  8
TITLE_BLOCK_BORDER
 62
     0
100
AcDbLine
 10
0.0
 20
-1.6666666667
 30
0.0
 11
0.0
 21
-2.1666666667
 31
0.0
  0
LINE
  5
187
330
17D
100
AcDbEntity
  8
TITLE_BLOCK_BORDER
 62
     0
100
AcDbLine
 10
1.6666666667
 20
0.0
 30
0.0
 11
2.1666666667
 21
0.0
 31
0.0
  0
ENDBLK
  5
17F
330
17D
100
AcDbEntity
  8
0
100
AcDbBlockEnd
  0
ENDSEC
  0
SECTION
  2
ENTITIES
  0
LINE
  5
B4
330
1F
100
AcDbEntity
  8
PAGE_BORDER
370
    35
100
AcDbLine
 10
6.35
 20
209.55
 30
0.0
 11
273.05
 21
209.55
 31
0.0
  0
LINE
  5
B5
330
1F
100
AcDbEntity
  8
0
  6
Continuous
 62
     7
370
    50
100
AcDbLine
 10
0.0
 20
0.0
 30
0.0
 11
279.4
 21
0.0
 31
0.0
  0
LINE
  5
B6
330
1F
100
AcDbEntity
  8
0
  6
Continuous
 62
     7
370
    50
100
AcDbLine
 10
0.0
 20
0.0
 30
0.0
 11
0.0
 21
215.9
 31
0.0
  0
LINE
  5
B7
330
1F
100
AcDbEntity
  8
0
  6
Continuous
 62
     7
370
    50
100
AcDbLine
 10
0.0
 20
215.9
 30
0.0
 11
279.4
 21
215.9
 31
0.0
  0
LINE
  5
B8
330
1F
100
AcDbEntity
  8
0
  6
Continuous
 62
     7
370
    50
100
AcDbLine
 10
279.4
 20
0.0
 30
0.0
 11
279.4
 21
215.9
 31
0.0
  0
LINE
  5
B9
330
1F
100
AcDbEntity
  8
PAGE_BORDER
370
    35
100
AcDbLine
 10
6.35
 20
6.35
 30
0.0
 11
273.05
 21
6.35
 31
0.0
  0
LINE
  5
BA
330
1F
100
AcDbEntity
  8
PAGE_BORDER
370
    35
100
AcDbLine
 10
273.05
 20
209.55
 30
0.0
 11
273.05
 21
6.35
 31
0.0
  0
LINE
  5
BB
330
1F
100
AcDbEntity
  8
PAGE_BORDER
370
    35
100
AcDbLine
 10
6.35
 20
6.35
 30
0.0
 11
6.35
 21
209.55
 31
0.0
  0
LINE
  5
BC
330
1F
100
AcDbEntity
  8
TITLE_BLOCK_BORDER
370
    50
100
AcDbLine
 10
273.05
 20
24.7327297853
 30
0.0
 11
166.1797118536
 21
24.7327297853
 31
0.0
  0
LINE
  5
BD
330
1F
100
AcDbEntity
  8
TITLE_BLOCK_BORDER
370
    50
100
AcDbLine
 10
273.05
 20
30.7079320672
 30
0.0
 11
273.05
 21
6.35
 31
0.0
  0
LINE
  5
BE
330
1F
100
AcDbEntity
  8
TITLE_BLOCK_BORDER
370
    50
100
AcDbLine
 10
166.3596486342
 20
12.8389822917
 30
0.0
 11
273.05
 21
12.8389822917
 31
0.0
  0
LINE
  5
BF
330
1F
100
AcDbEntity
  8
TITLE_BLOCK_BORDER
370
    50
100
AcDbLine
 10
166.1797118536
 20
6.35
 30
0.0
 11
273.05
 21
6.35
 31
0.0
  0
LINE
  5
C0
330
1F
100
AcDbEntity
  8
TITLE_BLOCK_BORDER
370
    50
100
AcDbLine
 10
219.7048243171
 20
12.8389822917
 30
0.0
 11
219.6148559268
 21
6.35
 31
0.0
  0
LINE
  5
C1
330
1F
100
AcDbEntity
  8
TITLE_BLOCK_BORDER
370
    50
100
AcDbLine
 10
185.2379608383
 20
30.7079320672
 30
0.0
 11
185.2379608383
 21
24.7778494384
 31
0.0
  0
LINE
  5
C2
330
1F
100
AcDbEntity
  8
TITLE_BLOCK_BORDER
370
    50
100
AcDbLine
 10
273.05
 20
18.5181435496
 30
0.0
 11
166.1797118536
 21
18.5181435496
 31
0.0
  0
LINE
  5
C3
330
1F
100
AcDbEntity
  8
TITLE_BLOCK_BORDER
370
    50
100
AcDbLine
 10
166.1797118536
 20
6.35
 30
0.0
 11
123.0873463833
 21
6.35
 31
0.0
  0
LINE
  5
C4
330
1F
100
AcDbEntity
  8
TITLE_BLOCK_BORDER
370
    50
100
AcDbLine
 10
231.1258436229
 20
30.7079320672
 30
0.0
 11
231.1258436229
 21
6.35
 31
0.0
  0
LINE
  5
C5
330
1F
100
AcDbEntity
  8
TITLE_BLOCK_BORDER
370
    50
100
AcDbLine
 10
245.0295122118
 20
30.7079320672
 30
0.0
 11
245.0295122118
 21
12.8389822917
 31
0.0
  0
LINE
  5
C6
330
1F
100
AcDbEntity
  8
TITLE_BLOCK_BORDER
370
    50
100
AcDbLine
 10
166.1797118536
 20
30.7079320672
 30
0.0
 11
166.1797118536
 21
6.35
 31
0.0
  0
LINE
  5
C7
330
1F
100
AcDbEntity
  8
TITLE_BLOCK_BORDER
370
    50
100
AcDbLine
 10
273.05
 20
30.7079320672
 30
0.0
 11
166.1797118536
 21
30.7079320672
 31
0.0
  0
LINE
  5
C8
330
1F
100
AcDbEntity
  8
TITLE_BLOCK_BORDER
370
    50
100
AcDbLine
 10
123.0873463833
 20
30.7079320672
 30
0.0
 11
123.0873463833
 21
6.35
 31
0.0
  0
LINE
  5
C9
330
1F
100
AcDbEntity
  8
TITLE_BLOCK_BORDER
370
    50
100
AcDbLine
 10
166.1797118536
 20
30.7079320672
 30
0.0
 11
123.0873463833
 21
30.7079320672
 31
0.0
  0
LINE
  5
CA
330
1F
100
AcDbEntity
  8
TITLE_BLOCK_BORDER
370
    50
100
AcDbLine
 10
199.1604682989
 20
24.7327297853
 30
0.0
 11
199.1604682989
 21
12.8389822917
 31
0.0
  0
LINE
  5
CB
330
1F
100
AcDbEntity
  8
TITLE_BLOCK_BORDER
370
    50
100
AcDbLine
 10
177.6056946901
 20
24.7327297853
 30
0.0
 11
177.6056946901
 21
6.35
 31
0.0
  0
LINE
  5
CC
330
1F
100
AcDbEntity
  8
TITLE_BLOCK_BORDER
370
    50
100
AcDbLine
 10
210.6379608383
 20
24.7327297853
 30
0.0
 11
210.6379608383
 21
12.8389822917
 31
0.0
  0
INSERT
  5
CD
330
1F
100
AcDbEntity
  8
TITLE_BLOCK_BORDER
100
AcDbBlockReference
  2
Lien3D Logo
 10
132.4320851816
 20
8.9974660089
 30
0.0
 41
1.2
 42
1.2
 43
1.2
  0
MTEXT
  5
CF
330
1F
100
AcDbEntity
  8
TITLE_BLOCK_BORDER
100
AcDbMText
 10
207.9920459621
 20
29.3770985335
 30
0.0
 40
3.175
 41
0.0
 71
     2
 72
     1
  1
Silicon Bed Heater
  7
SLDTEXTSTYLE0
 73
     1
 44
1.0
  0
MTEXT
  5
D0
330
1F
100
AcDbEntity
  8
TITLE_BLOCK_BORDER
100
AcDbMText
 10
258.9252834882
 20
29.3770985335
 30
0.0
 40
3.175
 41
0.0
 71
     2
 72
     1
  1
ESV25_P19
  7
SLDTEXTSTYLE0
 73
     1
 44
1.0
  0
MTEXT
  5
D1
330
1F
100
AcDbEntity
  8
TITLE_BLOCK_BORDER
100
AcDbMText
 10
258.7556464576
 20
23.3055766961
 30
0.0
 40
3.175
 41
0.0
 71
     2
 72
     1
  1
07-17-2020
  7
SLDTEXTSTYLE0
 73
     1
 44
1.0
  0
MTEXT
  5
D2
330
1F
100
AcDbEntity
  8
TITLE_BLOCK_BORDER
100
AcDbMText
 10
188.5933357857
 20
17.229584495
 30
0.0
 40
3.175
 41
0.0
 71
     2
 72
     1
  1
ECL
  7
SLDTEXTSTYLE0
 73
     1
 44
1.0
  0
MTEXT
  5
D3
330
1F
100
AcDbEntity
  8
TITLE_BLOCK_BORDER
100
AcDbMText
 10
220.9472407348
 20
17.389394227
 30
0.0
 40
2.6458333333
 41
0.0
 71
     2
 72
     1
  1
mm
  7
SLDTEXTSTYLE0
 73
     1
 44
1.0
  0
MTEXT
  5
D4
330
1F
100
AcDbEntity
  8
TITLE_BLOCK_BORDER
100
AcDbMText
 10
259.0329111073
 20
17.229584495
 30
0.0
 40
3.175
 41
0.0
 71
     2
 72
     1
  1
R02
  7
SLDTEXTSTYLE0
 73
     1
 44
1.0
  0
MTEXT
  5
D5
330
1F
100
AcDbEntity
  8
TITLE_BLOCK_BORDER
100
AcDbMText
 10
198.5988787752
 20
11.1053171841
 30
0.0
 40
3.175
 41
0.0
 71
     2
 72
     1
  1
SEE BOM
  7
SLDTEXTSTYLE0
 73
     1
 44
1.0
  0
MTEXT
  5
D6
330
1F
100
AcDbEntity
  8
TITLE_BLOCK_BORDER
100
AcDbMText
 10
252.3243869187
 20
11.1053171841
 30
0.0
 40
3.175
 41
0.0
 71
     2
 72
     1
  1
NA
  7
SLDTEXTSTYLE0
 73
     1
 44
1.0
  0
INSERT
  5
DD
330
1F
100
AcDbEntity
  8
TITLE_BLOCK_BORDER
100
AcDbBlockReference
  2
SW_NOTE_177
 10
9.5438399084
 20
19.0997869509
 30
0.0
  0
MTEXT
  5
DE
330
1F
100
AcDbEntity
  8
TITLE_BLOCK_TEXT
100
AcDbMText
 10
232.1641238021
 20
28.7457458086
 30
0.0
 40
1.5
 41
0.0
 71
     1
 72
     1
  1
DRAWING #:
  7
SLDTEXTSTYLE0
 73
     1
 44
1.0
  0
MTEXT
  5
DF
330
1F
100
AcDbEntity
  8
TITLE_BLOCK_TEXT
100
AcDbMText
 10
167.0419216099
 20
28.7409279551
 30
0.0
 40
1.5
 41
0.0
 71
     1
 72
     1
  1
DRAWING NAME:
  7
SLDTEXTSTYLE0
 73
     1
 44
1.0
  0
MTEXT
  5
E0
330
1F
100
AcDbEntity
  8
TITLE_BLOCK_TEXT
100
AcDbMText
 10
232.4174845894
 20
22.3605363923
 30
0.0
 40
1.5
 41
0.0
 71
     1
 72
     1
  1
DATE:
  7
SLDTEXTSTYLE0
 73
     1
 44
1.0
  0
MTEXT
  5
E1
330
1F
100
AcDbEntity
  8
TITLE_BLOCK_TEXT
100
AcDbMText
 10
232.1641238021
 20
16.1110682204
 30
0.0
 40
1.5
 41
0.0
 71
     1
 72
     1
  1
REVISION:
  7
SLDTEXTSTYLE0
 73
     1
 44
1.0
  0
MTEXT
  5
E2
330
1F
100
AcDbEntity
  8
TITLE_BLOCK_TEXT
100
AcDbMText
 10
167.4667096264
 20
22.3605363923
 30
0.0
 40
1.5
 41
0.0
 71
     1
 72
     1
  1
SCALE:
  7
SLDTEXTSTYLE0
 73
     1
 44
1.0
  0
MTEXT
  5
E3
330
1F
100
AcDbEntity
  8
TITLE_BLOCK_TEXT
100
AcDbMText
 10
167.343850922
 20
16.5910810231
 30
0.0
 40
1.5
 41
0.0
 71
     1
 72
     1
  1
DRAWN:
  7
SLDTEXTSTYLE0
 73
     1
 44
1.0
  0
MTEXT
  5
E4
330
1F
100
AcDbEntity
  8
TITLE_BLOCK_TEXT
100
AcDbMText
 10
200.0082621128
 20
16.5910810231
 30
0.0
 40
1.5
 41
0.0
 71
     1
 72
     1
  1
DIM UNITS:
  7
SLDTEXTSTYLE0
 73
     1
 44
1.0
  0
MTEXT
  5
E5
330
1F
100
AcDbEntity
  8
TITLE_BLOCK_TEXT
100
AcDbMText
 10
200.0125587695
 20
22.3605363923
 30
0.0
 40
1.5
 41
0.0
 71
     1
 72
     1
  1
SHEET SIZE:
  7
SLDTEXTSTYLE0
 73
     1
 44
1.0
  0
MTEXT
  5
E6
330
1F
100
AcDbEntity
  8
TITLE_BLOCK_TEXT
100
AcDbMText
 10
167.1307478371
 20
10.3416128512
 30
0.0
 40
1.5
 41
0.0
 71
     1
 72
     1
  1
MATERIAL:
  7
SLDTEXTSTYLE0
 73
     1
 44
1.0
  0
MTEXT
  5
E7
330
1F
100
AcDbEntity
  8
TITLE_BLOCK_TEXT
100
AcDbMText
 10
222.244722813
 20
10.3416128512
 30
0.0
 40
1.5
 41
0.0
 71
     1
 72
     1
  1
FINISH:
  7
SLDTEXTSTYLE0
 73
     1
 44
1.0
  0
MTEXT
  5
E8
330
1F
100
AcDbEntity
  8
TITLE_BLOCK_TEXT
100
AcDbMText
 10
185.299534451
 20
23.2125283955
 30
0.0
 40
3.175
 41
0.0
 71
     1
 72
     1
  1
1:3
  7
SLDTEXTSTYLE0
 73
     1
 44
1.0
  0
MTEXT
  5
EA
330
1F
100
AcDbEntity
  8
TITLE_BLOCK_TEXT
100
AcDbMText
 10
213.0235060597
 20
23.2125283955
 30
0.0
 40
3.175
 41
0.0
 71
     1
 72
     1
  1
8.5" x 11"
  7
SLDTEXTSTYLE1
 73
     1
 44
1.0
  0
LINE
  5
EB
330
1F
100
AcDbEntity
  8
0
  6
Continuous
 62
     7
370
    25
100
AcDbLine
 10
132.2580470523
 20
135.3842784511
 30
0.0
 11
135.1029574326
 21
135.3842784511
 31
0.0
  0
LINE
  5
EC
330
1F
100
AcDbEntity
  8
0
  6
Continuous
 62
     7
370
    25
100
AcDbLine
 10
135.1029574326
 20
138.0509451178
 30
0.0
 11
132.2580470523
 21
138.0509451178
 31
0.0
  0
LINE
  5
ED
330
1F
100
AcDbEntity
  8
0
  6
Continuous
 62
     7
370
    25
100
AcDbLine
 10
146.0273005888
 20
181.0226235995
 30
0.0
 11
144.8157738168
 21
178.402030765
 31
0.0
  0
LINE
  5
EE
330
1F
100
AcDbEntity
  8
0
  6
Continuous
 62
     7
370
    25
100
AcDbLine
 10
147.2362876087
 20
177.2830025732
 30
0.0
 11
148.4478143808
 21
179.9035954077
 31
0.0
  0
ARC
  5
EF
330
1F
100
AcDbEntity
  8
0
  6
Continuous
 62
     7
370
    25
100
AcDbCircle
 10
155.1029574326
 20
173.6461609498
 30
0.0
 40
8.66666666666666
100
AcDbArc
 50
155.1884182368
 51
180.0
  0
ARC
  5
F0
330
1F
100
AcDbEntity
  8
0
  6
Continuous
 62
     7
370
    25
100
AcDbCircle
 10
155.1029574326
 20
173.6461609498
 30
0.0
 40
11.33333333333333
100
AcDbArc
 50
155.1884182368
 51
180.0
  0
LINE
  5
F1
330
1F
100
AcDbEntity
  8
0
  6
Continuous
 62
     7
370
    25
100
AcDbLine
 10
143.7696240993
 20
173.6461609498
 30
0.0
 11
143.7696240993
 21
146.7176117845
 31
0.0
  0
LINE
  5
F2
330
1F
100
AcDbEntity
  8
0
  6
Continuous
 62
     7
370
    25
100
AcDbLine
 10
146.4362907659
 20
146.7176117845
 30
0.0
 11
146.4362907659
 21
173.6461609498
 31
0.0
  0
ARC
  5
F3
330
1F
100
AcDbEntity
  8
0
  6
Continuous
 62
     7
370
    25
100
AcDbCircle
 10
135.1029574326
 20
146.7176117845
 30
0.0
 40
8.666666666666657
100
AcDbArc
 50
270.0
 51
0.0
  0
ARC
  5
F4
330
1F
100
AcDbEntity
  8
0
  6
Continuous
 62
     7
370
    25
100
AcDbCircle
 10
135.1029574326
 20
146.7176117845
 30
0.0
 40
11.33333333333334
100
AcDbArc
 50
270.0
 51
0.0
  0
LINE
  5
F5
330
1F
100
AcDbEntity
  8
0
  6
Continuous
 62
     7
370
    25
100
AcDbLine
 10
132.2580470523
 20
144.7176117845
 30
0.0
 11
129.2123385125
 21
144.7176117845
 31
0.0
  0
LINE
  5
F6
330
1F
100
AcDbEntity
  8
0
  6
Continuous
 62
     7
370
    25
100
AcDbLine
 10
132.2580470523
 20
136.7176117845
 30
0.0
 11
132.2580470523
 21
144.7176117845
 31
0.0
  0
LINE
  5
F7
330
1F
100
AcDbEntity
  8
0
  6
Continuous
 62
     7
370
    25
100
AcDbLine
 10
132.2580470523
 20
128.7176117845
 30
0.0
 11
132.2580470523
 21
136.7176117845
 31
0.0
  0
LINE
  5
F8
330
1F
100
AcDbEntity
  8
0
  6
Continuous
 62
     7
370
    25
100
AcDbLine
 10
129.2123385125
 20
128.7176117845
 30
0.0
 11
132.2580470523
 21
128.7176117845
 31
0.0
  0
LINE
  5
F9
330
1F
100
AcDbEntity
  8
0
  6
Continuous
 62
     7
370
    25
100
AcDbLine
 10
129.2123385125
 20
144.7176117845
 30
0.0
 11
129.2123385125
 21
128.7176117845
 31
0.0
  0
LINE
  5
FA
330
1F
100
AcDbEntity
  8
0
  6
Continuous
 62
     7
370
    25
100
AcDbLine
 10
119.3117910067
 20
128.7176117845
 30
0.0
 11
119.019771189
 21
128.4685270922
 31
0.0
  0
LINE
  5
FB
330
1F
100
AcDbEntity
  8
0
  6
Continuous
 62
     7
370
    25
100
AcDbLine
 10
119.3117910067
 20
128.7176117845
 30
0.0
 11
129.2123385125
 21
128.7176117845
 31
0.0
  0
LINE
  5
FC
330
1F
100
AcDbEntity
  8
0
  6
Continuous
 62
     7
370
    25
100
AcDbLine
 10
129.2123385125
 20
128.7176117845
 30
0.0
 11
129.2353689697
 21
128.3842784511
 31
0.0
  0
LINE
  5
FD
330
1F
100
AcDbEntity
  8
0
  6
Continuous
 62
     7
370
    25
100
AcDbLine
 10
129.2353689697
 20
128.3842784511
 30
0.0
 11
119.6323716488
 21
128.3842784511
 31
0.0
  0
LINE
  5
FE
330
1F
100
AcDbEntity
  8
0
  6
Continuous
 62
     7
370
    25
100
AcDbLine
 10
119.6323716488
 20
128.3842784511
 30
0.0
 11
119.019771189
 21
128.4685270922
 31
0.0
  0
LINE
  5
FF
330
1F
100
AcDbEntity
  8
0
  6
Continuous
 62
     7
370
    25
100
AcDbLine
 10
132.2580470523
 20
128.7176117845
 30
0.0
 11
132.2580470523
 21
128.3842784511
 31
0.0
  0
LINE
  5
100
330
1F
100
AcDbEntity
  8
0
  6
Continuous
 62
     7
370
    25
100
AcDbLine
 10
132.2580470523
 20
128.3842784511
 30
0.0
 11
129.2353689697
 21
128.3842784511
 31
0.0
  0
LINE
  5
101
330
1F
100
AcDbEntity
  8
0
  6
Continuous
 62
     7
370
    25
100
AcDbLine
 10
129.2123385125
 20
144.7176117845
 30
0.0
 11
119.3117910067
 21
144.7176117845
 31
0.0
  0
LINE
  5
102
330
1F
100
AcDbEntity
  8
0
  6
Continuous
 62
     7
370
    25
100
AcDbLine
 10
119.3117910067
 20
144.7176117845
 30
0.0
 11
119.3117910067
 21
128.7176117845
 31
0.0
  0
LINE
  5
103
330
1F
100
AcDbEntity
  8
0
  6
Continuous
 62
     7
370
    25
100
AcDbLine
 10
147.2375574848
 20
180.4631095036
 30
0.0
 11
146.0273005888
 21
181.0226235995
 31
0.0
  0
LINE
  5
104
330
1F
100
AcDbEntity
  8
0
  6
Continuous
 62
     7
370
    25
100
AcDbLine
 10
148.4478143808
 20
179.9035954077
 30
0.0
 11
147.2375574848
 21
180.4631095036
 31
0.0
  0
LINE
  5
105
330
1F
100
AcDbEntity
  8
0
  6
Continuous
 62
     7
370
    25
100
AcDbLine
 10
129.2123385125
 20
144.7176117845
 30
0.0
 11
129.2353689697
 21
145.0509451178
 31
0.0
  0
LINE
  5
106
330
1F
100
AcDbEntity
  8
0
  6
Continuous
 62
     7
370
    25
100
AcDbLine
 10
129.2353689697
 20
145.0509451178
 30
0.0
 11
132.2580470523
 21
145.0509451178
 31
0.0
  0
LINE
  5
107
330
1F
100
AcDbEntity
  8
0
  6
Continuous
 62
     7
370
    25
100
AcDbLine
 10
132.2580470523
 20
145.0509451178
 30
0.0
 11
132.2580470523
 21
144.7176117845
 31
0.0
  0
LINE
  5
108
330
1F
100
AcDbEntity
  8
0
  6
Continuous
 62
     7
370
    25
100
AcDbLine
 10
119.3117910067
 20
144.7176117845
 30
0.0
 11
119.019771189
 21
144.9666964767
 31
0.0
  0
LINE
  5
109
330
1F
100
AcDbEntity
  8
0
  6
Continuous
 62
     7
370
    25
100
AcDbLine
 10
119.019771189
 20
144.9666964767
 30
0.0
 11
119.6323716488
 21
145.0509451178
 31
0.0
  0
LINE
  5
10A
330
1F
100
AcDbEntity
  8
0
  6
Continuous
 62
     7
370
    25
100
AcDbLine
 10
119.6323716488
 20
145.0509451178
 30
0.0
 11
129.2353689697
 21
145.0509451178
 31
0.0
  0
LINE
  5
10B
330
1F
100
AcDbEntity
  8
0
  6
Continuous
 62
     7
370
    25
100
AcDbLine
 10
119.019771189
 20
128.4685270922
 30
0.0
 11
119.019771189
 21
144.9666964767
 31
0.0
  0
LINE
  5
10C
330
1F
100
AcDbEntity
  8
0
  6
Continuous
 62
     7
370
    25
100
AcDbLine
 10
81.0913803856
 20
134.5509451178
 30
0.0
 11
76.7580470523
 21
134.5509451178
 31
0.0
  0
LINE
  5
10D
330
1F
100
AcDbEntity
  8
0
  6
Continuous
 62
     7
370
    25
100
AcDbLine
 10
81.0913803856
 20
138.8842784511
 30
0.0
 11
81.0913803856
 21
134.5509451178
 31
0.0
  0
LINE
  5
10E
330
1F
100
AcDbEntity
  8
0
  6
Continuous
 62
     7
370
    25
100
AcDbLine
 10
76.7580470523
 20
138.8842784511
 30
0.0
 11
81.0913803856
 21
138.8842784511
 31
0.0
  0
LINE
  5
10F
330
1F
100
AcDbEntity
  8
0
  6
Continuous
 62
     7
370
    25
100
AcDbLine
 10
76.7580470523
 20
134.5509451178
 30
0.0
 11
76.7580470523
 21
138.8842784511
 31
0.0
  0
LINE
  5
110
330
1F
100
AcDbEntity
  8
0
  6
Continuous
 62
     7
370
    25
100
AcDbLine
 10
131.7580470523
 20
83.8842784511
 30
0.0
 11
131.7580470523
 21
128.3842784511
 31
0.0
  0
LINE
  5
111
330
1F
100
AcDbEntity
  8
0
  6
Continuous
 62
     7
370
    25
100
AcDbLine
 10
26.0913803856
 20
83.8842784511
 30
0.0
 11
131.7580470523
 21
83.8842784511
 31
0.0
  0
LINE
  5
112
330
1F
100
AcDbEntity
  8
0
  6
Continuous
 62
     7
370
    25
100
AcDbLine
 10
26.0913803856
 20
189.5509451178
 30
0.0
 11
26.0913803856
 21
83.8842784511
 31
0.0
  0
LINE
  5
113
330
1F
100
AcDbEntity
  8
0
  6
Continuous
 62
     7
370
    25
100
AcDbLine
 10
131.7580470523
 20
189.5509451178
 30
0.0
 11
26.0913803856
 21
189.5509451178
 31
0.0
  0
LINE
  5
114
330
1F
100
AcDbEntity
  8
0
  6
Continuous
 62
     7
370
    25
100
AcDbLine
 10
131.7580470523
 20
145.0509451178
 30
0.0
 11
131.7580470523
 21
189.5509451178
 31
0.0
  0
LINE
  5
115
330
1F
100
AcDbEntity
  8
0
  6
Continuous
 62
     7
370
    25
100
AcDbLine
 10
80.5913803856
 20
138.3842784511
 30
0.0
 11
77.2580470523
 21
138.3842784511
 31
0.0
  0
LINE
  5
116
330
1F
100
AcDbEntity
  8
0
  6
Continuous
 62
     7
370
    25
100
AcDbLine
 10
76.7580470523
 20
138.8842784511
 30
0.0
 11
77.2580470523
 21
138.3842784511
 31
0.0
  0
LINE
  5
117
330
1F
100
AcDbEntity
  8
0
  6
Continuous
 62
     7
370
    25
100
AcDbLine
 10
80.5913803856
 20
138.3842784511
 30
0.0
 11
81.0913803856
 21
138.8842784511
 31
0.0
  0
LINE
  5
118
330
1F
100
AcDbEntity
  8
0
  6
Continuous
 62
     7
370
    25
100
AcDbLine
 10
131.7580470523
 20
189.5509451178
 30
0.0
 11
132.2580470523
 21
190.0509451178
 31
0.0
  0
LINE
  5
119
330
1F
100
AcDbEntity
  8
0
  6
Continuous
 62
     7
370
    25
100
AcDbLine
 10
132.2580470523
 20
190.0509451178
 30
0.0
 11
132.2580470523
 21
145.0509451178
 31
0.0
  0
LINE
  5
11A
330
1F
100
AcDbEntity
  8
0
  6
Continuous
 62
     7
370
    25
100
AcDbLine
 10
77.2580470523
 20
138.3842784511
 30
0.0
 11
77.2580470523
 21
135.0509451178
 31
0.0
  0
LINE
  5
11B
330
1F
100
AcDbEntity
  8
0
  6
Continuous
 62
     7
370
    25
100
AcDbLine
 10
76.7580470523
 20
134.5509451178
 30
0.0
 11
77.2580470523
 21
135.0509451178
 31
0.0
  0
LINE
  5
11C
330
1F
100
AcDbEntity
  8
0
  6
Continuous
 62
     7
370
    25
100
AcDbLine
 10
131.7580470523
 20
83.8842784511
 30
0.0
 11
132.2580470523
 21
83.3842784511
 31
0.0
  0
LINE
  5
11D
330
1F
100
AcDbEntity
  8
0
  6
Continuous
 62
     7
370
    25
100
AcDbLine
 10
132.2580470523
 20
128.3842784511
 30
0.0
 11
132.2580470523
 21
83.3842784511
 31
0.0
  0
LINE
  5
11E
330
1F
100
AcDbEntity
  8
0
  6
Continuous
 62
     7
370
    25
100
AcDbLine
 10
80.5913803856
 20
135.0509451178
 30
0.0
 11
80.5913803856
 21
138.3842784511
 31
0.0
  0
LINE
  5
11F
330
1F
100
AcDbEntity
  8
0
  6
Continuous
 62
     7
370
    25
100
AcDbLine
 10
80.5913803856
 20
135.0509451178
 30
0.0
 11
81.0913803856
 21
134.5509451178
 31
0.0
  0
LINE
  5
120
330
1F
100
AcDbEntity
  8
0
  6
Continuous
 62
     7
370
    25
100
AcDbLine
 10
77.2580470523
 20
135.0509451178
 30
0.0
 11
80.5913803856
 21
135.0509451178
 31
0.0
  0
LINE
  5
121
330
1F
100
AcDbEntity
  8
0
  6
Continuous
 62
     7
370
    25
100
AcDbLine
 10
25.5913803856
 20
190.0509451178
 30
0.0
 11
132.2580470523
 21
190.0509451178
 31
0.0
  0
LINE
  5
122
330
1F
100
AcDbEntity
  8
0
  6
Continuous
 62
     7
370
    25
100
AcDbLine
 10
25.5913803856
 20
190.0509451178
 30
0.0
 11
26.0913803856
 21
189.5509451178
 31
0.0
  0
LINE
  5
123
330
1F
100
AcDbEntity
  8
0
  6
Continuous
 62
     7
370
    25
100
AcDbLine
 10
132.2580470523
 20
83.3842784511
 30
0.0
 11
25.5913803856
 21
83.3842784511
 31
0.0
  0
LINE
  5
124
330
1F
100
AcDbEntity
  8
0
  6
Continuous
 62
     7
370
    25
100
AcDbLine
 10
25.5913803856
 20
83.3842784511
 30
0.0
 11
26.0913803856
 21
83.8842784511
 31
0.0
  0
LINE
  5
125
330
1F
100
AcDbEntity
  8
0
  6
Continuous
 62
     7
370
    25
100
AcDbLine
 10
25.5913803856
 20
83.3842784511
 30
0.0
 11
25.5913803856
 21
190.0509451178
 31
0.0
  0
LINE
  5
126
330
1F
100
AcDbEntity
  8
0
  6
Continuous
 62
     8
370
    25
100
AcDbLine
 10
135.1029574326
 20
136.7176117845
 30
0.0
 11
135.1029574326
 21
138.0509451178
 31
0.0
  0
LINE
  5
127
330
1F
100
AcDbEntity
  8
0
  6
Continuous
 62
     8
370
    25
100
AcDbLine
 10
135.1029574326
 20
135.3842784511
 30
0.0
 11
135.1029574326
 21
136.7176117845
 31
0.0
  0
LINE
  5
128
330
1F
100
AcDbEntity
  8
0
  6
Continuous
 62
     8
370
    25
100
AcDbLine
 10
146.0260307128
 20
177.8425166691
 30
0.0
 11
144.8157738168
 21
178.402030765
 31
0.0
  0
LINE
  5
129
330
1F
100
AcDbEntity
  8
0
  6
Continuous
 62
     8
370
    25
100
AcDbLine
 10
147.2362876087
 20
177.2830025732
 30
0.0
 11
146.0260307128
 21
177.8425166691
 31
0.0
  0
LINE
  5
12A
330
1F
100
AcDbEntity
  8
0
  6
Continuous
 62
     8
370
    25
100
AcDbLine
 10
145.1029574326
 20
173.6461609498
 30
0.0
 11
143.7696240993
 21
173.6461609498
 31
0.0
  0
LINE
  5
12B
330
1F
100
AcDbEntity
  8
0
  6
Continuous
 62
     8
370
    25
100
AcDbLine
 10
146.4362907659
 20
173.6461609498
 30
0.0
 11
145.1029574326
 21
173.6461609498
 31
0.0
  0
LINE
  5
12C
330
1F
100
AcDbEntity
  8
0
  6
Continuous
 62
     8
370
    25
100
AcDbLine
 10
145.1029574326
 20
146.7176117845
 30
0.0
 11
143.7696240993
 21
146.7176117845
 31
0.0
  0
LINE
  5
12D
330
1F
100
AcDbEntity
  8
0
  6
Continuous
 62
     8
370
    25
100
AcDbLine
 10
146.4362907659
 20
146.7176117845
 30
0.0
 11
145.1029574326
 21
146.7176117845
 31
0.0
  0
DIMENSION
  5
12E
330
1F
100
AcDbEntity
  8
TITLE_BLOCK_BORDER
100
AcDbDimension
  2
_D
 10
132.2580470523
 20
195.8865885993
 30
0.0
 11
76.5491708075
 21
195.8865885993
 31
0.0
 70
   160
  1
<>
 71
     2
 42
-1.0
  3
SLDDIMSTYLE0
100
AcDbAlignedDimension
 13
25.5913803856
 23
190.0509451178
 33
0.0
 14
132.2580470523
 24
190.0509451178
 34
0.0
100
AcDbRotatedDimension
  0
DIMENSION
  5
139
330
1F
100
AcDbEntity
  8
TITLE_BLOCK_BORDER
100
AcDbDimension
  2
_D_1
 10
19.4569747458
 20
190.0509451178
 30
0.0
 11
19.4569747458
 21
140.081246122
 31
0.0
 70
   160
  1
<>
 71
     2
 42
-1.0
  3
SLDDIMSTYLE0
100
AcDbAlignedDimension
 13
25.5913803856
 23
83.3842784511
 33
0.0
 14
25.5913803856
 24
190.0509451178
 34
0.0
 50
90.0
100
AcDbRotatedDimension
  0
INSERT
  5
150
330
1F
100
AcDbEntity
  8
TITLE_BLOCK_BORDER
100
AcDbBlockReference
  2
SW_NOTE_178
 10
163.5545301303
 20
197.392860642
 30
0.0
  0
INSERT
  5
15C
330
1F
100
AcDbEntity
  8
TITLE_BLOCK_BORDER
100
AcDbBlockReference
  2
SW_NOTE_179
 10
15.8348038033
 20
69.1496652635
 30
0.0
  0
SOLID
  5
15D
330
1F
100
AcDbEntity
  8
TITLE_BLOCK_BORDER
100
AcDbTrace
 10
79.9147965525
 20
134.5509451178
 30
0.0
 11
80.9671191213
 21
131.3801589044
 31
0.0
 12
81.8715254944
 22
131.843089906
 32
0.0
 13
81.8715254944
 23
131.843089906
 33
0.0
  0
LINE
  5
15E
330
1F
100
AcDbEntity
  8
TITLE_BLOCK_BORDER
100
AcDbLine
 10
79.9147965525
 20
134.5509451178
 30
0.0
 11
109.4104475752
 21
76.9266886523
 31
0.0
  0
LINE
  5
15F
330
1F
100
AcDbEntity
  8
TITLE_BLOCK_BORDER
100
AcDbLine
 10
109.4104475752
 20
76.9266886523
 30
0.0
 11
103.3183352081
 21
64.6794150731
 31
0.0
  0
SOLID
  5
160
330
1F
100
AcDbEntity
  8
TITLE_BLOCK_BORDER
100
AcDbTrace
 10
146.1667604539
 20
155.8069556047
 30
0.0
 11
148.315712435
 21
158.3649378922
 31
0.0
 12
147.4474656443
 22
158.892577457
 32
0.0
 13
147.4474656443
 23
158.892577457
 33
0.0
  0
LINE
  5
161
330
1F
100
AcDbEntity
  8
TITLE_BLOCK_BORDER
100
AcDbLine
 10
146.1667604539
 20
155.8069556047
 30
0.0
 11
163.4983127109
 21
184.3265466817
 31
0.0
  0
LINE
  5
162
330
1F
100
AcDbEntity
  8
0
  6
Continuous
 62
     7
370
    25
100
AcDbLine
 10
132.2580470523
 20
50.4461905145
 30
0.0
 11
135.1029574326
 21
50.4461905145
 31
0.0
  0
LINE
  5
163
330
1F
100
AcDbEntity
  8
0
  6
Continuous
 62
     7
370
    25
100
AcDbLine
 10
135.1029574326
 20
53.1128571812
 30
0.0
 11
132.2580470523
 21
53.1128571812
 31
0.0
  0
LINE
  5
164
330
1F
100
AcDbEntity
  8
0
  6
Continuous
 62
     7
370
    25
100
AcDbLine
 10
135.1029574326
 20
50.4461905145
 30
0.0
 11
145.1029574326
 21
50.4461905145
 31
0.0
  0
LINE
  5
165
330
1F
100
AcDbEntity
  8
0
  6
Continuous
 62
     7
370
    25
100
AcDbLine
 10
145.1029574326
 20
53.1128571812
 30
0.0
 11
135.1029574326
 21
53.1128571812
 31
0.0
  0
LINE
  5
166
330
1F
100
AcDbEntity
  8
0
  6
Continuous
 62
     7
370
    25
100
AcDbLine
 10
146.0260307128
 20
53.1128571812
 30
0.0
 11
145.1029574326
 21
53.1128571812
 31
0.0
  0
LINE
  5
167
330
1F
100
AcDbEntity
  8
0
  6
Continuous
 62
     7
370
    25
100
AcDbLine
 10
145.1029574326
 20
50.4461905145
 30
0.0
 11
146.0260307128
 21
50.4461905145
 31
0.0
  0
LINE
  5
168
330
1F
100
AcDbEntity
  8
0
  6
Continuous
 62
     7
370
    25
100
AcDbLine
 10
147.2375574848
 20
53.1128571812
 30
0.0
 11
146.0260307128
 21
53.1128571812
 31
0.0
  0
LINE
  5
169
330
1F
100
AcDbEntity
  8
0
  6
Continuous
 62
     7
370
    25
100
AcDbLine
 10
146.0260307128
 20
50.4461905145
 30
0.0
 11
147.2375574848
 21
50.4461905145
 31
0.0
  0
LINE
  5
16A
330
1F
100
AcDbEntity
  8
0
  6
Continuous
 62
     7
370
    25
100
AcDbLine
 10
132.2580470523
 20
50.2795238478
 30
0.0
 11
25.5913803856
 21
50.2795238478
 31
0.0
  0
LINE
  5
16B
330
1F
100
AcDbEntity
  8
0
  6
Continuous
 62
     7
370
    25
100
AcDbLine
 10
25.5913803856
 20
50.2795238478
 30
0.0
 11
25.5913803856
 21
50.9461905145
 31
0.0
  0
LINE
  5
16C
330
1F
100
AcDbEntity
  8
0
  6
Continuous
 62
     7
370
    25
100
AcDbLine
 10
132.2580470523
 20
50.9461905145
 30
0.0
 11
25.5913803856
 21
50.9461905145
 31
0.0
  0
LINE
  5
16D
330
1F
100
AcDbEntity
  8
0
  6
Continuous
 62
     7
370
    25
100
AcDbLine
 10
132.2580470523
 20
50.2795238478
 30
0.0
 11
132.2580470523
 21
50.9461905145
 31
0.0
  0
LINE
  5
16E
330
1F
100
AcDbEntity
  8
0
  6
Continuous
 62
     7
370
    25
100
AcDbLine
 10
26.0913803856
 20
51.4461905145
 30
0.0
 11
131.7580470523
 21
51.4461905145
 31
0.0
  0
LINE
  5
16F
330
1F
100
AcDbEntity
  8
0
  6
Continuous
 62
     7
370
    25
100
AcDbLine
 10
131.7580470523
 20
51.4461905145
 30
0.0
 11
132.2580470523
 21
50.9461905145
 31
0.0
  0
LINE
  5
170
330
1F
100
AcDbEntity
  8
0
  6
Continuous
 62
     7
370
    25
100
AcDbLine
 10
25.5913803856
 20
50.9461905145
 30
0.0
 11
26.0913803856
 21
51.4461905145
 31
0.0
  0
LINE
  5
171
330
1F
100
AcDbEntity
  8
0
  6
Continuous
 62
     7
370
    25
100
AcDbLine
 10
129.2353689697
 20
52.7795238478
 30
0.0
 11
119.6323716488
 21
51.4461905145
 31
0.0
  0
LINE
  5
172
330
1F
100
AcDbEntity
  8
0
  6
Continuous
 62
     7
370
    25
100
AcDbLine
 10
132.2580470523
 20
52.7795238478
 30
0.0
 11
129.2353689697
 21
52.7795238478
 31
0.0
  0
LINE
  5
173
330
1F
100
AcDbEntity
  8
0
  6
Continuous
 62
     7
370
    25
100
AcDbLine
 10
132.2580470523
 20
50.9461905145
 30
0.0
 11
132.2580470523
 21
52.7795238478
 31
0.0
  0
LINE
  5
174
330
1F
100
AcDbEntity
  8
0
  6
Continuous
 62
     7
370
    25
100
AcDbLine
 10
119.3117910067
 20
51.7382103322
 30
0.0
 11
119.019771189
 21
51.4461905145
 31
0.0
  0
LINE
  5
175
330
1F
100
AcDbEntity
  8
0
  6
Continuous
 62
     7
370
    25
100
AcDbLine
 10
119.3117910067
 20
51.7382103322
 30
0.0
 11
129.2123385125
 21
53.1128571812
 31
0.0
  0
LINE
  5
176
330
1F
100
AcDbEntity
  8
0
  6
Continuous
 62
     7
370
    25
100
AcDbLine
 10
129.2123385125
 20
53.1128571812
 30
0.0
 11
129.2353689697
 21
52.7795238478
 31
0.0
  0
LINE
  5
177
330
1F
100
AcDbEntity
  8
0
  6
Continuous
 62
     7
370
    25
100
AcDbLine
 10
129.2123385125
 20
53.1128571812
 30
0.0
 11
132.2580470523
 21
53.1128571812
 31
0.0
  0
LINE
  5
178
330
1F
100
AcDbEntity
  8
0
  6
Continuous
 62
     7
370
    25
100
AcDbLine
 10
132.2580470523
 20
53.1128571812
 30
0.0
 11
132.2580470523
 21
52.7795238478
 31
0.0
  0
ARC
  5
179
330
1F
100
AcDbEntity
  8
0
  6
Continuous
 62
     7
370
    25
100
AcDbCircle
 10
145.1029574326
 20
51.7795238478
 30
0.0
 40
1.333333333333336
100
AcDbArc
 50
270.0
 51
90.0
  0
ARC
  5
17A
330
1F
100
AcDbEntity
  8
0
  6
Continuous
 62
     7
370
    25
100
AcDbCircle
 10
147.1409576682
 20
51.7795238478
 30
0.0
 40
1.336828075090151
100
AcDbArc
 50
274.1438311671
 51
85.8561688329
  0
LINE
  5
17B
330
1F
100
AcDbEntity
  8
0
  6
Continuous
 62
     8
370
    25
100
AcDbLine
 10
135.1029574326
 20
50.4461905145
 30
0.0
 11
135.1029574326
 21
53.1128571812
 31
0.0
  0
ARC
  5
17C
330
1F
100
AcDbEntity
  8
0
  6
Continuous
 62
     8
370
    25
100
AcDbCircle
 10
145.9294308961
 20
51.7795238478
 30
0.0
 40
1.336828075090138
100
AcDbArc
 50
274.1438311671
 51
85.8561688329
  0
INSERT
  5
188
330
1F
100
AcDbEntity
  8
TITLE_BLOCK_BORDER
100
AcDbBlockReference
  2
SW_CENTERMARKSYMBOL_109
 10
145.1029574326
 20
51.7795238478
 30
0.0
  0
LINE
  5
189
330
1F
100
AcDbEntity
  8
0
  6
Continuous
 62
     7
370
    25
100
AcDbLine
 10
230.216685529
 20
126.0860025666
 30
0.0
 11
230.2816419065
 21
126.1681497108
 31
0.0
  0
LINE
  5
18A
330
1F
100
AcDbEntity
  8
0
  6
Continuous
 62
     7
370
    25
100
AcDbLine
 10
228.7128369408
 20
127.4086540355
 30
0.0
 11
228.006022083
 21
126.5147799581
 31
0.0
  0
SPLINE
  5
18B
330
1F
100
AcDbEntity
  8
0
  6
Continuous
 62
     7
370
    25
100
AcDbSpline
210
0.0
220
0.0
230
1.0
 70
     8
 71
     3
 72
    25
 73
    21
 74
     0
 42
0.000000001
 43
0.00000001
 40
0.0
 40
0.0
 40
0.0
 40
0.0
 40
0.0333018994755166
 40
0.093893833172349
 40
0.1537117315109802
 40
0.2121963883864566
 40
0.2692714131754147
 40
0.3251520395141645
 40
0.3802770244164074
 40
0.4351550589267869
 40
0.4902188179912112
 40
0.5459878967858168
 40
0.6028368302701739
 40
0.6609281663300509
 40
0.7201887240463286
 40
0.780357727528911
 40
0.8410953653532469
 40
0.902092721080091
 40
0.9630967828681171
 40
0.9999999999999999
 40
0.9999999999999999
 40
0.9999999999999999
 40
0.9999999999999999
 10
230.2816419064973
 20
126.1681497108247
 30
0.0
 10
230.3496805085682
 20
126.2575129429537
 30
0.0
 10
230.5415135647224
 20
126.5094702349222
 30
0.0
 10
230.8021324134003
 20
126.9417294807206
 30
0.0
 10
231.0359435600456
 20
127.4651166886444
 30
0.0
 10
231.1884502656275
 20
127.9953510498074
 30
0.0
 10
231.2602790288844
 20
128.5234915170888
 30
0.0
 10
231.2529851608146
 20
129.0428560844117
 30
0.0
 10
231.1695561854345
 20
129.5479890447033
 30
0.0
 10
231.0131267556062
 20
130.034571347307
 30
0.0
 10
230.7864838447207
 20
130.4995232118708
 30
0.0
 10
230.4915881910287
 20
130.9405665128134
 30
0.0
 10
230.1294899493872
 20
131.355691496461
 30
0.0
 10
229.7012979733237
 20
131.7421841378412
 30
0.0
 10
229.2091902304331
 20
132.0965778165418
 30
0.0
 10
228.6570124126655
 20
132.4149612301513
 30
0.0
 10
228.050496290188
 20
132.6939705056767
 30
0.0
 10
227.3959437330712
 20
132.9298588674401
 30
0.0
 10
226.7935824251813
 20
133.0984492536817
 30
0.0
 10
226.4052063468346
 20
133.178779111727
 30
0.0
 10
226.2588196133234
 20
133.2090570463844
 30
0.0
  0
SPLINE
  5
18C
330
1F
100
AcDbEntity
  8
0
  6
Continuous
 62
     7
370
    25
100
AcDbSpline
210
0.0
220
0.0
230
1.0
 70
     8
 71
     3
 72
    23
 73
    19
 74
     0
 42
0.000000001
 43
0.00000001
 40
0.0
 40
0.0
 40
0.0
 40
0.0
 40
0.0342417371556524
 40
0.0996442871319617
 40
0.1647315228707804
 40
0.2294867996908804
 40
0.2939903097884453
 40
0.35843011777826
 40
0.4230821601744849
 40
0.4885832453548963
 40
0.5560391186627825
 40
0.6272080747250341
 40
0.704190729634242
 40
0.7766139584055299
 40
0.8437051080377655
 40
0.9076352930581607
 40
0.975559844106941
 40
1.0
 40
1.0
 40
1.0
 40
1.0
 10
225.8779993212819
 20
131.2456477907351
 30
0.0
 10
225.9826661374448
 20
131.224152649702
 30
0.0
 10
226.2872491156831
 20
131.1616012670045
 30
0.0
 10
226.7617931176063
 20
131.0311345115308
 30
0.0
 10
227.2797868806212
 20
130.8462257871306
 30
0.0
 10
227.742540804886
 20
130.6337626440079
 30
0.0
 10
228.1458418758986
 20
130.3994391295559
 30
0.0
 10
228.4862217852514
 20
130.1487404036603
 30
0.0
 10
228.7624226078957
 20
129.88740425624
 30
0.0
 10
228.975521792578
 20
129.6200284102124
 30
0.0
 10
229.1288067396775
 20
129.3479960546893
 30
0.0
 10
229.2257154630417
 20
129.0668336237147
 30
0.0
 10
229.2633880444191
 20
128.7785789713517
 30
0.0
 10
229.2413509634211
 20
128.48094610045
 30
0.0
 10
229.162616107492
 20
128.1798857285156
 30
0.0
 10
229.0238851515369
 20
127.8653069707012
 30
0.0
 10
228.864443712548
 20
127.6058957675476
 30
0.0
 10
228.7445590202131
 20
127.4499247374525
 30
0.0
 10
228.7128369407861
 20
127.4086540355087
 30
0.0
  0
LINE
  5
18D
330
1F
100
AcDbEntity
  8
0
  6
Continuous
 62
     7
370
    25
100
AcDbLine
 10
207.8311838928
 20
134.7459845148
 30
0.0
 11
225.8779993213
 21
131.2456477907
 31
0.0
  0
LINE
  5
18E
330
1F
100
AcDbEntity
  8
0
  6
Continuous
 62
     7
370
    25
100
AcDbLine
 10
226.2588196133
 20
133.2090570464
 30
0.0
 11
208.2120041849
 21
136.7093937704
 31
0.0
  0
SPLINE
  5
18F
330
1F
100
AcDbEntity
  8
0
  6
Continuous
 62
     7
370
    25
100
AcDbSpline
210
0.0
220
0.0
230
1.0
 70
     8
 71
     3
 72
    12
 73
     8
 74
     0
 42
0.000000001
 43
0.00000001
 40
0.0
 40
0.0
 40
0.0
 40
0.0
 40
0.1223906168170071
 40
0.3561596687964409
 40
0.588801689637195
 40
0.820257186072443
 40
1.0
 40
1.0
 40
1.0
 40
1.0
 10
208.2120041848615
 20
136.709393770433
 30
0.0
 10
208.1073428577611
 20
136.7308904495673
 30
0.0
 10
207.8027758528278
 20
136.7934463081765
 30
0.0
 10
207.328027722856
 20
136.9238558645219
 30
0.0
 10
206.8108823361512
 20
137.1090023141425
 30
0.0
 10
206.379077540622
 20
137.3051113282547
 30
0.0
 10
206.1417002311346
 20
137.4444715462687
 30
0.0
 10
206.0379379721599
 20
137.5053886198658
 30
0.0
  0
SPLINE
  5
190
330
1F
100
AcDbEntity
  8
0
  6
Continuous
 62
     7
370
    25
100
AcDbSpline
210
0.0
220
0.0
230
1.0
 70
     8
 71
     3
 72
    12
 73
     8
 74
     0
 42
0.000000001
 43
0.00000001
 40
0.0
 40
0.0
 40
0.0
 40
0.0
 40
0.12275041756657
 40
0.3490606377352649
 40
0.5758892695345359
 40
0.8029619091083288
 40
0.9999999999999999
 40
0.9999999999999999
 40
0.9999999999999999
 40
0.9999999999999999
 10
204.9848998050683
 20
135.8050619986991
 30
0.0
 10
205.0844597353664
 20
135.7456448079401
 30
0.0
 10
205.3675744770646
 20
135.5766824295635
 30
0.0
 10
205.8747288592772
 20
135.3310437596542
 30
0.0
 10
206.5176128367166
 20
135.083159994871
 30
0.0
 10
207.1710040346202
 20
134.8859936150855
 30
0.0
 10
207.6217645484822
 20
134.7903975843773
 30
0.0
 10
207.83118389282
 20
134.7459845147837
 30
0.0
  0
LINE
  5
191
330
1F
100
AcDbEntity
  8
0
  6
Continuous
 62
     7
370
    25
100
AcDbLine
 10
203.6251683364
 20
136.6471644017
 30
0.0
 11
204.9848998051
 21
135.8050619987
 31
0.0
  0
LINE
  5
192
330
1F
100
AcDbEntity
  8
0
  6
Continuous
 62
     7
370
    25
100
AcDbLine
 10
206.0379379722
 20
137.5053886199
 30
0.0
 11
204.6782065035
 21
138.3474910229
 31
0.0
  0
LINE
  5
193
330
1F
100
AcDbEntity
  8
0
  6
Continuous
 62
     7
370
    25
100
AcDbLine
 10
229.4635610831
 20
74.0181644936
 30
0.0
 11
157.9783268107
 21
87.8833470652
 31
0.0
  0
LINE
  5
194
330
1F
100
AcDbEntity
  8
0
  6
Continuous
 62
     7
370
    25
100
AcDbLine
 10
157.9783268107
 20
87.8833470652
 30
0.0
 11
158.4375395602
 21
88.3312018629
 31
0.0
  0
LINE
  5
195
330
1F
100
AcDbEntity
  8
0
  6
Continuous
 62
     7
370
    25
100
AcDbLine
 10
158.4375395602
 20
88.3312018629
 30
0.0
 11
229.2525997613
 21
74.5960053779
 31
0.0
  0
LINE
  5
196
330
1F
100
AcDbEntity
  8
0
  6
Continuous
 62
     7
370
    25
100
AcDbLine
 10
229.4635610831
 20
74.0181644936
 30
0.0
 11
229.2525997613
 21
74.5960053779
 31
0.0
  0
LINE
  5
197
330
1F
100
AcDbEntity
  8
0
  6
Continuous
 62
     7
370
    25
100
AcDbLine
 10
264.3746091545
 20
118.1684544063
 30
0.0
 11
229.4635610831
 21
74.0181644936
 31
0.0
  0
LINE
  5
198
330
1F
100
AcDbEntity
  8
0
  6
Continuous
 62
     7
370
    25
100
AcDbLine
 10
229.2525997613
 20
74.5960053779
 30
0.0
 11
263.8363567571
 21
118.3323863226
 31
0.0
  0
LINE
  5
199
330
1F
100
AcDbEntity
  8
0
  6
Continuous
 62
     7
370
    25
100
AcDbLine
 10
263.8363567571
 20
118.3323863226
 30
0.0
 11
264.3746091545
 21
118.1684544063
 31
0.0
  0
LINE
  5
19A
330
1F
100
AcDbEntity
  8
0
  6
Continuous
 62
     7
370
    25
100
AcDbLine
 10
264.4273022531
 20
117.7605965968
 30
0.0
 11
229.5162541817
 21
73.6103066842
 31
0.0
  0
LINE
  5
19B
330
1F
100
AcDbEntity
  8
0
  6
Continuous
 62
     7
370
    25
100
AcDbLine
 10
229.5162541817
 20
73.6103066842
 30
0.0
 11
229.4635610831
 21
74.0181644936
 31
0.0
  0
LINE
  5
19C
330
1F
100
AcDbEntity
  8
0
  6
Continuous
 62
     7
370
    25
100
AcDbLine
 10
264.4273022531
 20
117.7605965968
 30
0.0
 11
264.3746091545
 21
118.1684544063
 31
0.0
  0
LINE
  5
19D
330
1F
100
AcDbEntity
  8
0
  6
Continuous
 62
     7
370
    25
100
AcDbLine
 10
229.5162541817
 20
73.6103066842
 30
0.0
 11
158.0310199093
 21
87.4754892558
 31
0.0
  0
LINE
  5
19E
330
1F
100
AcDbEntity
  8
0
  6
Continuous
 62
     7
370
    25
100
AcDbLine
 10
158.0310199093
 20
87.4754892558
 30
0.0
 11
157.9783268107
 21
87.8833470652
 31
0.0
  0
LINE
  5
19F
330
1F
100
AcDbEntity
  8
0
  6
Continuous
 62
     7
370
    25
100
AcDbLine
 10
213.2981226438
 20
103.9469603356
 30
0.0
 11
211.8798613159
 21
102.1533548079
 31
0.0
  0
LINE
  5
1A0
330
1F
100
AcDbEntity
  8
0
  6
Continuous
 62
     7
370
    25
100
AcDbLine
 10
210.3940350014
 20
104.5102333776
 30
0.0
 11
213.2981226438
 21
103.9469603356
 31
0.0
  0
LINE
  5
1A1
330
1F
100
AcDbEntity
  8
0
  6
Continuous
 62
     7
370
    25
100
AcDbLine
 10
208.9757736735
 20
102.7166278499
 30
0.0
 11
210.3940350014
 21
104.5102333776
 31
0.0
  0
LINE
  5
1A2
330
1F
100
AcDbEntity
  8
0
  6
Continuous
 62
     7
370
    25
100
AcDbLine
 10
211.8798613159
 20
102.1533548079
 30
0.0
 11
208.9757736735
 21
102.7166278499
 31
0.0
  0
LINE
  5
1A3
330
1F
100
AcDbEntity
  8
0
  6
Continuous
 62
     7
370
    25
100
AcDbLine
 10
230.0449852381
 20
119.097841385
 30
0.0
 11
234.0136105841
 21
124.1167671767
 31
0.0
  0
LINE
  5
1A4
330
1F
100
AcDbEntity
  8
0
  6
Continuous
 62
     7
370
    25
100
AcDbLine
 10
263.8363567571
 20
118.3323863226
 30
0.0
 11
234.0136105841
 21
124.1167671767
 31
0.0
  0
LINE
  5
1A5
330
1F
100
AcDbEntity
  8
0
  6
Continuous
 62
     7
370
    25
100
AcDbLine
 10
193.021296556
 20
132.0675828076
 30
0.0
 11
158.4375395602
 21
88.3312018629
 31
0.0
  0
LINE
  5
1A6
330
1F
100
AcDbEntity
  8
0
  6
Continuous
 62
     7
370
    25
100
AcDbLine
 10
222.1934283709
 20
126.4093942637
 30
0.0
 11
193.021296556
 21
132.0675828076
 31
0.0
  0
LINE
  5
1A7
330
1F
100
AcDbEntity
  8
0
  6
Continuous
 62
     7
370
    25
100
AcDbLine
 10
218.7313799743
 20
120.9997641866
 30
0.0
 11
218.875417383
 21
121.2642761618
 31
0.0
  0
LINE
  5
1A8
330
1F
100
AcDbEntity
  8
0
  6
Continuous
 62
     7
370
    25
100
AcDbLine
 10
229.7880253198
 20
118.8552317121
 30
0.0
 11
218.7313799743
 21
120.9997641866
 31
0.0
  0
LINE
  5
1A9
330
1F
100
AcDbEntity
  8
0
  6
Continuous
 62
     7
370
    25
100
AcDbLine
 10
230.0449852381
 20
119.097841385
 30
0.0
 11
229.7880253198
 21
118.8552317121
 31
0.0
  0
LINE
  5
1AA
330
1F
100
AcDbEntity
  8
0
  6
Continuous
 62
     7
370
    25
100
AcDbLine
 10
157.9783268107
 20
87.8833470652
 30
0.0
 11
192.8893748821
 21
132.0336369778
 31
0.0
  0
LINE
  5
1AB
330
1F
100
AcDbEntity
  8
0
  6
Continuous
 62
     7
370
    25
100
AcDbLine
 10
193.021296556
 20
132.0675828076
 30
0.0
 11
192.8893748821
 21
132.0336369778
 31
0.0
  0
LINE
  5
1AC
330
1F
100
AcDbEntity
  8
0
  6
Continuous
 62
     7
370
    25
100
AcDbLine
 10
211.7887546645
 20
102.1710257349
 30
0.0
 11
212.8389098942
 21
103.4991055379
 31
0.0
  0
LINE
  5
1AD
330
1F
100
AcDbEntity
  8
0
  6
Continuous
 62
     7
370
    25
100
AcDbLine
 10
212.8389098942
 20
103.4991055379
 30
0.0
 11
213.2981226438
 21
103.9469603356
 31
0.0
  0
LINE
  5
1AE
330
1F
100
AcDbEntity
  8
0
  6
Continuous
 62
     7
370
    25
100
AcDbLine
 10
210.6049963232
 20
103.9323924933
 30
0.0
 11
209.5548410935
 21
102.6043126903
 31
0.0
  0
LINE
  5
1AF
330
1F
100
AcDbEntity
  8
0
  6
Continuous
 62
     7
370
    25
100
AcDbLine
 10
210.6049963232
 20
103.9323924933
 30
0.0
 11
210.3940350014
 21
104.5102333776
 31
0.0
  0
LINE
  5
1B0
330
1F
100
AcDbEntity
  8
0
  6
Continuous
 62
     7
370
    25
100
AcDbLine
 10
210.6576894218
 20
103.5245346839
 30
0.0
 11
210.6049963232
 21
103.9323924933
 31
0.0
  0
LINE
  5
1B1
330
1F
100
AcDbEntity
  8
0
  6
Continuous
 62
     7
370
    25
100
AcDbLine
 10
210.6576894218
 20
103.5245346839
 30
0.0
 11
209.8801482725
 21
102.5412165352
 31
0.0
  0
LINE
  5
1B2
330
1F
100
AcDbEntity
  8
0
  6
Continuous
 62
     7
370
    25
100
AcDbLine
 10
212.8389098942
 20
103.4991055379
 30
0.0
 11
210.6049963232
 21
103.9323924933
 31
0.0
  0
LINE
  5
1B3
330
1F
100
AcDbEntity
  8
0
  6
Continuous
 62
     7
370
    25
100
AcDbLine
 10
212.5662958138
 20
103.1543438836
 30
0.0
 11
210.6576894218
 21
103.5245346839
 31
0.0
  0
LINE
  5
1B4
330
1F
100
AcDbEntity
  8
0
  6
Continuous
 62
     7
370
    25
100
AcDbLine
 10
229.6935895542
 20
119.1871327225
 30
0.0
 11
229.7880253198
 21
118.8552317121
 31
0.0
  0
LINE
  5
1B5
330
1F
100
AcDbEntity
  8
0
  6
Continuous
 62
     7
370
    25
100
AcDbLine
 10
229.6935895542
 20
119.1871327225
 30
0.0
 11
232.8252987942
 21
124.1260488014
 31
0.0
  0
LINE
  5
1B6
330
1F
100
AcDbEntity
  8
0
  6
Continuous
 62
     7
370
    25
100
AcDbLine
 10
232.8252987942
 20
124.1260488014
 30
0.0
 11
233.0825743637
 21
123.8883237139
 31
0.0
  0
LINE
  5
1B7
330
1F
100
AcDbEntity
  8
0
  6
Continuous
 62
     7
370
    25
100
AcDbLine
 10
233.0825743637
 20
123.8883237139
 30
0.0
 11
230.0449852381
 21
119.097841385
 31
0.0
  0
LINE
  5
1B8
330
1F
100
AcDbEntity
  8
0
  6
Continuous
 62
     7
370
    25
100
AcDbLine
 10
222.1025136533
 20
126.2058261872
 30
0.0
 11
218.9708044133
 21
121.2669101083
 31
0.0
  0
LINE
  5
1B9
330
1F
100
AcDbEntity
  8
0
  6
Continuous
 62
     7
370
    25
100
AcDbLine
 10
222.1025136533
 20
126.2058261872
 30
0.0
 11
232.8252987942
 21
124.1260488014
 31
0.0
  0
LINE
  5
1BA
330
1F
100
AcDbEntity
  8
0
  6
Continuous
 62
     7
370
    25
100
AcDbLine
 10
218.9708044133
 20
121.2669101083
 30
0.0
 11
229.6935895542
 21
119.1871327225
 31
0.0
  0
LINE
  5
1BB
330
1F
100
AcDbEntity
  8
0
  6
Continuous
 62
     7
370
    25
100
AcDbLine
 10
234.0718699247
 20
125.1394372795
 30
0.0
 11
233.0825743637
 21
123.8883237139
 31
0.0
  0
LINE
  5
1BC
330
1F
100
AcDbEntity
  8
0
  6
Continuous
 62
     7
370
    25
100
AcDbLine
 10
234.2088868816
 20
124.0788916414
 30
0.0
 11
234.0718699247
 21
125.1394372795
 31
0.0
  0
LINE
  5
1BD
330
1F
100
AcDbEntity
  8
0
  6
Continuous
 62
     7
370
    25
100
AcDbLine
 10
218.9708044133
 20
121.2669101083
 30
0.0
 11
218.7313799743
 21
120.9997641866
 31
0.0
  0
LINE
  5
1BE
330
1F
100
AcDbEntity
  8
0
  6
Continuous
 62
     7
370
    25
100
AcDbLine
 10
222.1025136533
 20
126.2058261872
 30
0.0
 11
221.9130065086
 21
126.0547584907
 31
0.0
  0
LINE
  5
1BF
330
1F
100
AcDbEntity
  8
0
  6
Continuous
 62
     7
370
    25
100
AcDbLine
 10
218.875417383
 20
121.2642761618
 30
0.0
 11
221.9130065086
 21
126.0547584907
 31
0.0
  0
LINE
  5
1C0
330
1F
100
AcDbEntity
  8
0
  6
Continuous
 62
     7
370
    25
100
AcDbLine
 10
232.8252987942
 20
124.1260488014
 30
0.0
 11
233.8221320183
 21
125.3866948797
 31
0.0
  0
LINE
  5
1C1
330
1F
100
AcDbEntity
  8
0
  6
Continuous
 62
     7
370
    25
100
AcDbLine
 10
233.8221320183
 20
125.3866948797
 30
0.0
 11
234.0718699247
 21
125.1394372795
 31
0.0
  0
LINE
  5
1C2
330
1F
100
AcDbEntity
  8
0
  6
Continuous
 62
     7
370
    25
100
AcDbLine
 10
223.0993468775
 20
127.4664722655
 30
0.0
 11
222.1025136533
 21
126.2058261872
 31
0.0
  0
LINE
  5
1C3
330
1F
100
AcDbEntity
  8
0
  6
Continuous
 62
     7
370
    25
100
AcDbLine
 10
233.8221320183
 20
125.3866948797
 30
0.0
 11
228.4607394479
 21
126.4265835726
 31
0.0
  0
LINE
  5
1C4
330
1F
100
AcDbEntity
  8
0
  6
Continuous
 62
     7
370
    25
100
AcDbLine
 10
228.4607394479
 20
126.4265835726
 30
0.0
 11
223.0993468775
 21
127.4664722655
 31
0.0
  0
LINE
  5
1C5
330
1F
100
AcDbEntity
  8
0
  6
Continuous
 62
     7
370
    25
100
AcDbLine
 10
221.9130065086
 20
126.0547584907
 30
0.0
 11
222.9023020697
 21
127.3058720563
 31
0.0
  0
LINE
  5
1C6
330
1F
100
AcDbEntity
  8
0
  6
Continuous
 62
     7
370
    25
100
AcDbLine
 10
222.9023020697
 20
127.3058720563
 30
0.0
 11
223.0993468775
 21
127.4664722655
 31
0.0
  0
LWPOLYLINE
  5
1C7
330
1F
100
AcDbEntity
  8
0
  6
Continuous
 62
     7
370
    25
100
AcDbPolyline
 90
        9
 70
   128
 43
0.0
 10
204.0463012227
 20
138.3130433311
 10
203.8237039698
 20
138.1505871061
 10
203.6302494857
 20
137.9300859172
 10
203.4831270503
 20
137.6711322626
 10
203.3954091378
 20
137.3967353111
 10
203.3748898694
 20
137.1312764358
 10
203.4233924724
 20
136.8983428228
 10
203.5366072775
 20
136.7186316459
 10
203.6251683364
 20
136.6471644017
  0
ARC
  5
1C8
330
1F
100
AcDbEntity
  8
0
  6
Continuous
 62
     7
370
    25
100
AcDbCircle
 10
204.3913265325
 20
137.7969608104
 30
0.0
 40
0.6207927452086507
100
AcDbArc
 50
62.4760883378
 51
123.7645801675
  0
ARC
  5
1C9
330
1F
100
AcDbEntity
  8
0
  6
Continuous
 62
     8
370
    25
100
AcDbCircle
 10
229.2056969954
 20
126.9736598647
 30
0.0
 40
0.6573666877014243
100
AcDbArc
 50
73.5496262326
 51
138.568645169
  0
LWPOLYLINE
  5
1CA
330
1F
100
AcDbEntity
  8
0
  6
Continuous
 62
     8
370
    25
100
AcDbPolyline
 90
        9
 70
   128
 43
0.0
 10
230.2816419065
 20
126.1681497108
 10
230.3237828832
 20
126.2304490596
 10
230.3918519362
 20
126.4379186531
 10
230.3804307415
 20
126.6765302188
 10
230.2905341224
 20
126.925082072
 10
230.130149788
 20
127.1614892897
 10
229.9135285903
 20
127.3647460531
 10
229.6599182732
 20
127.5167921069
 10
229.3918532265
 20
127.604117492
  0
LWPOLYLINE
  5
1CB
330
1F
100
AcDbEntity
  8
0
  6
Continuous
 62
     8
370
    25
100
AcDbPolyline
 90
       10
 70
   128
 43
0.0
 10
225.9630232701
 20
133.0430680374
 10
225.8390776324
 20
132.8441590011
 10
225.7355091346
 20
132.5904439932
 10
225.6615202922
 20
132.3044667054
 10
225.6236853387
 20
132.0116374749
 10
225.6253660757
 20
131.7379754637
 10
225.6664131622
 20
131.5077967426
 10
225.7431793846
 20
131.341553701
 10
225.8488437271
 20
131.2540177628
 10
225.8769786126
 20
131.2458489802
  0
ARC
  5
1CC
330
1F
100
AcDbEntity
  8
0
  6
Continuous
 62
     8
370
    25
100
AcDbCircle
 10
226.2358795961
 20
132.9033855216
 30
0.0
 40
0.3065318577634505
100
AcDbArc
 50
85.7092975058
 51
152.890868314
  0
LWPOLYLINE
  5
1CD
330
1F
100
AcDbEntity
  8
0
  6
Continuous
 62
     8
370
    25
100
AcDbPolyline
 90
       10
 70
   128
 43
0.0
 10
207.9162078417
 20
136.5434047614
 10
207.7922622039
 20
136.3444957252
 10
207.6886937061
 20
136.0907807172
 10
207.6147048638
 20
135.8048034295
 10
207.5768699103
 20
135.5119741989
 10
207.5785506472
 20
135.2383121878
 10
207.6195977338
 20
135.0081334667
 10
207.6963639562
 20
134.8418904251
 10
207.8020282986
 20
134.7543544868
 10
207.8311838928
 20
134.7459845148
  0
ARC
  5
1CE
330
1F
100
AcDbEntity
  8
0
  6
Continuous
 62
     8
370
    25
100
AcDbCircle
 10
208.1890617221
 20
136.4037252349
 30
0.0
 40
0.3065283187887428
100
AcDbArc
 50
85.7076178321
 51
152.8911573791
  0
LWPOLYLINE
  5
1CF
330
1F
100
AcDbEntity
  8
0
  6
Continuous
 62
     8
370
    25
100
AcDbPolyline
 90
        9
 70
   128
 43
0.0
 10
205.4060326914
 20
137.4709409281
 10
205.1834354385
 20
137.3084847031
 10
204.9899809544
 20
137.0879835142
 10
204.842858519
 20
136.8290298597
 10
204.7551406065
 20
136.5546329081
 10
204.7346213381
 20
136.2891740328
 10
204.7831239411
 20
136.0562404198
 10
204.8963387462
 20
135.8765292429
 10
204.9851352527
 20
135.8049162816
  0
ARC
  5
1D0
330
1F
100
AcDbEntity
  8
0
  6
Continuous
 62
     8
370
    25
100
AcDbCircle
 10
205.7511796582
 20
136.954469194
 30
0.0
 40
0.6211839347778799
100
AcDbArc
 50
62.629480016
 51
123.7539562989
  0
LINE
  5
1D1
330
1F
100
AcDbEntity
  8
TITLE_BLOCK_BORDER
100
AcDbLine
 10
270.7408571429
 20
143.9924285714
 30
0.0
 11
154.0674285714
 21
143.9924285714
 31
0.0
  0
LINE
  5
1D2
330
1F
100
AcDbEntity
  8
TITLE_BLOCK_BORDER
100
AcDbLine
 10
270.7408571429
 20
143.9924285714
 30
0.0
 11
270.7408571429
 21
67.9441428571
 31
0.0
  0
LINE
  5
1D3
330
1F
100
AcDbEntity
  8
TITLE_BLOCK_BORDER
100
AcDbLine
 10
270.7408571429
 20
67.9441428571
 30
0.0
 11
154.0674285714
 21
67.9441428571
 31
0.0
  0
LINE
  5
1D4
330
1F
100
AcDbEntity
  8
TITLE_BLOCK_BORDER
100
AcDbLine
 10
154.0674285714
 20
143.9924285714
 30
0.0
 11
154.0674285714
 21
67.9441428571
 31
0.0
  0
ENDSEC
  0
SECTION
  2
OBJECTS
  0
DICTIONARY
  5
C
330
0
100
AcDbDictionary
281
     1
  3
ACAD_GROUP
350
D
  3
ACAD_LAYOUT
350
1A
  3
ACAD_MLINESTYLE
350
17
  3
ACAD_PLOTSETTINGS
350
19
  3
ACAD_PLOTSTYLENAME
350
E
  3
ACAD_SCALELIST
350
47
  0
DICTIONARY
  5
D
102
{ACAD_REACTORS
330
C
102
}
330
C
100
AcDbDictionary
281
     1
  0
DICTIONARY
  5
1A
102
{ACAD_REACTORS
330
C
102
}
330
C
100
AcDbDictionary
281
     1
  3
Layout1
350
1E
  3
Layout2
350
26
  3
Model
350
22
  0
DICTIONARY
  5
17
102
{ACAD_REACTORS
330
C
102
}
330
C
100
AcDbDictionary
281
     1
  3
Standard
350
18
  0
DICTIONARY
  5
19
102
{ACAD_REACTORS
330
C
102
}
330
C
100
AcDbDictionary
281
     1
  0
ACDBDICTIONARYWDFLT
  5
E
102
{ACAD_REACTORS
330
C
102
}
330
C
100
AcDbDictionary
281
     1
  3
Normal
350
F
100
AcDbDictionaryWithDefault
340
F
  0
DICTIONARY
  5
47
102
{ACAD_REACTORS
330
C
102
}
330
C
100
AcDbDictionary
281
     1
  3
A0
350
48
  3
A1
350
49
  3
A2
350
4A
  3
A3
350
4B
  3
A4
350
4C
  3
A5
350
4D
  3
A6
350
4E
  3
A7
350
4F
  3
A8
350
50
  3
A9
350
51
  3
B0
350
52
  3
B1
350
53
  3
B2
350
54
  3
B3
350
55
  3
B4
350
56
  3
B5
350
57
  3
B6
350
58
  3
B7
350
59
  3
B8
350
5A
  3
B9
350
5B
  3
C0
350
5C
  3
C1
350
5D
  3
C2
350
5E
  3
C3
350
5F
  3
C4
350
60
  3
C5
350
61
  3
C6
350
62
  3
C7
350
63
  3
C8
350
64
  3
C9
350
65
  3
D0
350
66
  3
D1
350
67
  3
D2
350
68
  0
LAYOUT
  5
1E
102
{ACAD_REACTORS
330
1A
102
}
330
1A
100
AcDbPlotSettings
  1

  2
none_device
  4

  6

 40
0.0
 41
0.0
 42
0.0
 43
0.0
 44
0.0
 45
0.0
 46
0.0
 47
0.0
 48
0.0
 49
0.0
140
0.0
141
0.0
142
1.0
143
1.0
 70
   688
 72
     1
 73
     0
 74
     5
  7

 75
    16
147
1.0
148
0.0
149
0.0
100
AcDbLayout
  1
Layout1
 70
     1
 71
     1
 10
0.0
 20
0.0
 11
420.0
 21
297.0
 12
0.0
 22
0.0
 32
0.0
 14
1.0000000000E+20
 24
1.0000000000E+20
 34
1.0000000000E+20
 15
-1.0000000000E+20
 25
-1.0000000000E+20
 35
-1.0000000000E+20
146
0.0
 13
0.0
 23
0.0
 33
0.0
 16
1.0
 26
0.0
 36
0.0
 17
0.0
 27
1.0
 37
0.0
 76
     0
330
1B
  0
LAYOUT
  5
26
102
{ACAD_REACTORS
330
1A
102
}
330
1A
100
AcDbPlotSettings
  1

  2
none_device
  4

  6

 40
0.0
 41
0.0
 42
0.0
 43
0.0
 44
0.0
 45
0.0
 46
0.0
 47
0.0
 48
0.0
 49
0.0
140
0.0
141
0.0
142
1.0
143
1.0
 70
   688
 72
     1
 73
     0
 74
     5
  7

 75
    16
147
1.0
148
0.0
149
0.0
100
AcDbLayout
  1
Layout2
 70
     1
 71
     2
 10
0.0
 20
0.0
 11
0.0
 21
0.0
 12
0.0
 22
0.0
 32
0.0
 14
0.0
 24
0.0
 34
0.0
 15
0.0
 25
0.0
 35
0.0
146
0.0
 13
0.0
 23
0.0
 33
0.0
 16
1.0
 26
0.0
 36
0.0
 17
0.0
 27
1.0
 37
0.0
 76
     0
330
23
  0
LAYOUT
  5
22
102
{ACAD_REACTORS
330
1A
102
}
330
1A
100
AcDbPlotSettings
  1

  2
none_device
  4
Letter_(8.50_x_11.00_Inches)
  6

 40
6.35
 41
6.35
 42
6.35000508
 43
6.35000508
 44
215.9
 45
279.4
 46
0.0
 47
0.0
 48
0.0
 49
0.0
140
0.0
141
0.0
142
1.0
143
1.0
 70
  1712
 72
     1
 73
     0
 74
     0
  7

 75
     0
147
1.0
148
0.0
149
0.0
100
AcDbLayout
  1
Model
 70
     1
 71
     0
 10
0.0
 20
0.0
 11
279.4
 21
215.9
 12
0.0
 22
0.0
 32
0.0
 14
0.0
 24
0.0
 34
0.0
 15
279.4
 25
215.9
 35
0.0
146
0.0
 13
0.0
 23
0.0
 33
0.0
 16
1.0
 26
0.0
 36
0.0
 17
0.0
 27
1.0
 37
0.0
 76
     0
330
1F
331
29
  0
MLINESTYLE
  5
18
102
{ACAD_REACTORS
330
17
102
}
330
17
100
AcDbMlineStyle
  2
Standard
 70
     0
  3

 62
   256
 51
90.0
 52
90.0
 71
     2
 49
0.5
 62
   256
  6
BYLAYER
 49
-0.5
 62
   256
  6
BYLAYER
  0
ACDBPLACEHOLDER
  5
F
102
{ACAD_REACTORS
330
E
102
}
330
E
  0
SCALE
  5
48
102
{ACAD_REACTORS
330
47
102
}
330
47
100
AcDbScale
 70
     0
300
1:1
140
1.0
141
1.0
290
     1
  0
SCALE
  5
49
102
{ACAD_REACTORS
330
47
102
}
330
47
100
AcDbScale
 70
     0
300
1:2
140
1.0
141
2.0
290
     0
  0
SCALE
  5
4A
102
{ACAD_REACTORS
330
47
102
}
330
47
100
AcDbScale
 70
     0
300
1:4
140
1.0
141
4.0
290
     0
  0
SCALE
  5
4B
102
{ACAD_REACTORS
330
47
102
}
330
47
100
AcDbScale
 70
     0
300
1:5
140
1.0
141
5.0
290
     0
  0
SCALE
  5
4C
102
{ACAD_REACTORS
330
47
102
}
330
47
100
AcDbScale
 70
     0
300
1:8
140
1.0
141
8.0
290
     0
  0
SCALE
  5
4D
102
{ACAD_REACTORS
330
47
102
}
330
47
100
AcDbScale
 70
     0
300
1:10
140
1.0
141
10.0
290
     0
  0
SCALE
  5
4E
102
{ACAD_REACTORS
330
47
102
}
330
47
100
AcDbScale
 70
     0
300
1:16
140
1.0
141
16.0
290
     0
  0
SCALE
  5
4F
102
{ACAD_REACTORS
330
47
102
}
330
47
100
AcDbScale
 70
     0
300
1:20
140
1.0
141
20.0
290
     0
  0
SCALE
  5
50
102
{ACAD_REACTORS
330
47
102
}
330
47
100
AcDbScale
 70
     0
300
1:30
140
1.0
141
30.0
290
     0
  0
SCALE
  5
51
102
{ACAD_REACTORS
330
47
102
}
330
47
100
AcDbScale
 70
     0
300
1:40
140
1.0
141
40.0
290
     0
  0
SCALE
  5
52
102
{ACAD_REACTORS
330
47
102
}
330
47
100
AcDbScale
 70
     0
300
1:50
140
1.0
141
50.0
290
     0
  0
SCALE
  5
53
102
{ACAD_REACTORS
330
47
102
}
330
47
100
AcDbScale
 70
     0
300
1:100
140
1.0
141
100.0
290
     0
  0
SCALE
  5
54
102
{ACAD_REACTORS
330
47
102
}
330
47
100
AcDbScale
 70
     0
300
2:1
140
2.0
141
1.0
290
     0
  0
SCALE
  5
55
102
{ACAD_REACTORS
330
47
102
}
330
47
100
AcDbScale
 70
     0
300
4:1
140
4.0
141
1.0
290
     0
  0
SCALE
  5
56
102
{ACAD_REACTORS
330
47
102
}
330
47
100
AcDbScale
 70
     0
300
8:1
140
8.0
141
1.0
290
     0
  0
SCALE
  5
57
102
{ACAD_REACTORS
330
47
102
}
330
47
100
AcDbScale
 70
     0
300
10:1
140
10.0
141
1.0
290
     0
  0
SCALE
  5
58
102
{ACAD_REACTORS
330
47
102
}
330
47
100
AcDbScale
 70
     0
300
100:1
140
100.0
141
1.0
290
     0
  0
SCALE
  5
59
102
{ACAD_REACTORS
330
47
102
}
330
47
100
AcDbScale
 70
     0
300
1/128" = 1'-0"
140
0.0078125
141
12.0
290
     0
  0
SCALE
  5
5A
102
{ACAD_REACTORS
330
47
102
}
330
47
100
AcDbScale
 70
     0
300
1/64" = 1'-0"
140
0.015625
141
12.0
290
     0
  0
SCALE
  5
5B
102
{ACAD_REACTORS
330
47
102
}
330
47
100
AcDbScale
 70
     0
300
1/32" = 1'-0"
140
0.03125
141
12.0
290
     0
  0
SCALE
  5
5C
102
{ACAD_REACTORS
330
47
102
}
330
47
100
AcDbScale
 70
     0
300
1/16" = 1'-0"
140
0.0625
141
12.0
290
     0
  0
SCALE
  5
5D
102
{ACAD_REACTORS
330
47
102
}
330
47
100
AcDbScale
 70
     0
300
3/32" = 1'-0"
140
0.09375
141
12.0
290
     0
  0
SCALE
  5
5E
102
{ACAD_REACTORS
330
47
102
}
330
47
100
AcDbScale
 70
     0
300
1/8" = 1'-0"
140
0.125
141
12.0
290
     0
  0
SCALE
  5
5F
102
{ACAD_REACTORS
330
47
102
}
330
47
100
AcDbScale
 70
     0
300
3/16" = 1'-0"
140
0.1875
141
12.0
290
     0
  0
SCALE
  5
60
102
{ACAD_REACTORS
330
47
102
}
330
47
100
AcDbScale
 70
     0
300
1/4" = 1'-0"
140
0.25
141
12.0
290
     0
  0
SCALE
  5
61
102
{ACAD_REACTORS
330
47
102
}
330
47
100
AcDbScale
 70
     0
300
3/8" = 1'-0"
140
0.375
141
12.0
290
     0
  0
SCALE
  5
62
102
{ACAD_REACTORS
330
47
102
}
330
47
100
AcDbScale
 70
     0
300
1/2" = 1'-0"
140
0.5
141
12.0
290
     0
  0
SCALE
  5
63
102
{ACAD_REACTORS
330
47
102
}
330
47
100
AcDbScale
 70
     0
300
3/4" = 1'-0"
140
0.75
141
12.0
290
     0
  0
SCALE
  5
64
102
{ACAD_REACTORS
330
47
102
}
330
47
100
AcDbScale
 70
     0
300
1" = 1'-0"
140
1.0
141
12.0
290
     0
  0
SCALE
  5
65
102
{ACAD_REACTORS
330
47
102
}
330
47
100
AcDbScale
 70
     0
300
1-1/2" = 1'-0"
140
1.5
141
12.0
290
     0
  0
SCALE
  5
66
102
{ACAD_REACTORS
330
47
102
}
330
47
100
AcDbScale
 70
     0
300
3" = 1'-0"
140
3.0
141
12.0
290
     0
  0
SCALE
  5
67
102
{ACAD_REACTORS
330
47
102
}
330
47
100
AcDbScale
 70
     0
300
6" = 1'-0"
140
6.0
141
12.0
290
     0
  0
SCALE
  5
68
102
{ACAD_REACTORS
330
47
102
}
330
47
100
AcDbScale
 70
     0
300
1'-0" = 1'-0"
140
12.0
141
12.0
290
     0
  0
ENDSEC
  0
EOF
